<?xml version="1.0" encoding="UTF-8" standalone="no"?>
<!-- Created with Inkscape (http://www.inkscape.org/) -->

<svg
   width="1273.1588mm"
   height="619.41174mm"
   viewBox="0 0 1273.1588 619.41174"
   version="1.1"
   id="svg5"
   xml:space="preserve"
   xmlns:inkscape="http://www.inkscape.org/namespaces/inkscape"
   xmlns:sodipodi="http://sodipodi.sourceforge.net/DTD/sodipodi-0.dtd"
   xmlns="http://www.w3.org/2000/svg"
   xmlns:svg="http://www.w3.org/2000/svg"><sodipodi:namedview
     id="namedview7"
     pagecolor="#505050"
     bordercolor="#eeeeee"
     borderopacity="1"
     inkscape:showpageshadow="0"
     inkscape:pageopacity="0"
     inkscape:pagecheckerboard="0"
     inkscape:deskcolor="#505050"
     inkscape:document-units="mm"
     showgrid="false"
     showguides="true" /><defs
     id="defs2" /><g
     inkscape:label="Layer 1"
     inkscape:groupmode="layer"
     id="layer1"
     transform="translate(-684.78007,684.52144)"><path
       style="fill:#3a6a16;stroke:none;stroke-width:1"
       d="m 1435.1519,-541.88949 h -0.7937 v 0.26458 l 6.0854,3.175 v -0.26458 l -0.5292,-0.26458 h 0.5292 v -0.26459 h -0.5292 c 1.0504,-2.48708 -0.4868,-6.86064 3.4396,-7.40833 2.2728,-4.16983 5.6012,-0.39687 7.0564,2.11931 0.4154,0.71967 1.2198,2.60615 2.3548,1.83621 1.0213,-0.69321 -0.032,-3.12473 0.1429,-4.23069 0.2408,-1.52929 1.6642,-1.69862 2.1934,-2.9501 0.508,-1.20121 -0.1879,-2.52677 0.7726,-3.61421 3.2729,-3.7121 9.9457,2.04523 11.0596,5.25198 0.4206,1.21708 -0.016,2.7014 -0.032,3.96875 l 4.7625,-2.01348 3.175,0.68792 3.7041,-0.22225 2.622,0.61383 4.5615,-1.29117 1.0186,2.48973 -3.7042,2.11667 1.27,1.56369 -1.6906,1.70127 -4.3419,5.20171 c 5.887,1.40229 13.261,0.26458 19.3146,0.26458 -0.2593,-1.3335 -1.0848,-3.04006 -0.5291,-4.37621 1.0821,-2.6035 4.5852,-2.56116 6.2653,-0.75141 1.2912,1.38641 -0.1773,4.13279 1.2568,5.11968 1.5663,1.0795 3.9952,-0.27516 5.707,0.84138 5.0086,3.2676 9.0011,9.21808 14.5521,11.57817 2.413,1.02658 5.5192,-1.63248 6.4982,-3.683 0.9578,-2.01084 2.7834,-5.38428 2.413,-7.67028 -0.3096,-1.91822 -2.7755,-3.74385 -4.1487,-4.95035 -2.757,-2.42888 -5.6171,-4.74398 -8.4667,-7.05908 -1.3123,-1.06627 -3.3046,-2.15107 -4.1539,-3.64596 -1.9685,-3.46869 -2.2516,-9.03817 -3.22,-12.91961 -2.4077,-9.63083 -4.8075,-19.25849 -7.403,-28.83958 -1.6325,-6.028 -3.1539,-12.99422 -8.5064,-16.93333 l -0.7937,0.52916 0.2645,0.79375 -4.4979,-0.52916 -1.0583,-1.32292 0.2646,-1.5875 2.3812,-1.5875 0.7938,0.52917 c -1.0663,-2.52095 -3.4476,-4.80881 -5.2203,-6.87917 -3.6644,-4.28308 -7.3871,-8.49683 -11.1389,-12.7 -3.4396,-3.85101 -6.9877,-8.31771 -11.1813,-11.38105 -7.1332,-5.21097 -15.5972,-9.20592 -23.2595,-13.60118 -6.3791,-3.65945 -12.7741,-7.37896 -19.05,-11.21568 -3.8973,-2.38337 -7.9322,-5.3557 -12.1709,-7.0739 -10.877,-4.40928 -23.9474,-5.28109 -35.4541,-7.19826 -11.3242,-1.88674 -22.741,-3.14298 -34.1313,-4.48786 -2.7225,-0.32147 -5.461,-0.34131 -8.2021,-0.33999 -0.8704,2.7e-4 -2.2463,-0.23363 -2.5611,0.83291 -0.8149,2.74055 1.1165,6.94399 2.0452,9.48584 2.6697,7.30515 5.5113,14.54044 8.5646,21.69583 3.974,9.31016 7.6676,19.17436 12.5518,28.04584 6.6781,12.12479 15.4331,23.41774 23.4712,34.66042 5.9505,8.32194 11.5517,18.37319 19.4283,25.019 7.9402,6.69925 17.1027,12.14702 25.9292,17.56304 2.0479,1.25677 4.1275,2.8231 6.35,3.75444 1.6537,0.6932 2.9316,-0.36513 3.9688,1.5531 m -64.0292,-124.88334 -0.2646,0.79375 h -0.5292 l -0.2645,-1.05833 1.0583,0.26458 m -5.0271,3.96875 -0.7937,-0.52916 0.7937,0.52916 m -1.3229,10.58334 c -1.5637,-0.57521 -1.4711,-2.22409 -1.5875,-3.70417 1.9262,0.46302 2.0955,1.98649 1.5875,3.70417 m 76.4646,-3.175 0.2646,0.52916 -0.2646,-0.52916 m -58.2084,1.05833 0.2646,-0.26458 c 0.4736,0.15028 0.889,0.304 1.3282,0.54107 3.6354,1.95024 -0.2593,3.33825 -1.5928,-0.27649 m -3.4395,0 h 0.2645 v 1.32292 l -0.2645,-1.32292 m 45.5083,0.26458 0.2646,0.79375 -0.2646,-0.79375 m 0.7937,0 -0.2645,0.26459 0.2645,-0.26459 m 6.8792,0.79375 -0.2646,0.26459 0.2646,-0.26459 m -4.4979,0.35269 c 0.2037,0 0.042,0.13203 -0.087,0.0884 l 0.087,-0.0884 m 6.35,-0.0881 -0.2646,0.26458 0.2646,-0.26458 m -7.1438,0.26458 -0.2645,0.26458 0.2645,-0.26458 m 2.6459,0.26458 -0.2646,0.26459 0.2646,-0.26459 m 2.9104,0 -0.2646,0.26459 0.2646,-0.26459 m -1.0583,0.26459 -0.2646,0.26458 0.2646,-0.26458 m 5.2916,0 -0.2646,0.26458 0.2646,-0.26458 m -1.0583,0.26458 -0.2646,0.26458 0.2646,-0.26458 m -15.6104,0.26458 -0.2646,0.26459 0.2646,-0.26459 m 7.4083,0.79375 -0.2646,0.26459 0.2646,-0.26459 m -3.4396,0.26459 -0.2646,0.26458 0.2646,-0.26458 m -41.8041,1.05833 0.5291,1.05833 c -0.7011,-0.15028 -0.8863,-0.41989 -0.5291,-1.05833 m 56.0916,0.79375 v 0.26458 h -0.7937 l 0.7937,-0.26458 m -55.0333,0.52917 c 4.6461,0.20293 2.9263,6.03726 0.6297,1.57824 -0.2619,-0.50906 -0.4445,-1.03796 -0.6297,-1.57824 m 55.8271,0 0.2646,0.52916 -0.2646,-0.52916 m -3.7042,0.26458 0.2646,0.52917 -0.2646,-0.52917 m 2.1167,0.35269 c 0.2037,0 0.042,0.13176 -0.087,0.0884 l 0.087,-0.0884 m -1.0584,0.26458 c 0.2038,0 0.042,0.13177 -0.087,0.0884 l 0.087,-0.0884 m 1.8521,-0.0881 -0.2646,0.26458 0.2646,-0.26458 m 1.8521,0 1.0583,0.26458 v 0.26458 l -1.3229,-0.26458 0.2646,-0.26458 m -6.1727,0.70564 -0.09,0.17621 0.09,-0.17621 m 4.056,0.0881 -0.2645,0.26458 0.2645,-0.26458 m -19.8437,0.26458 -0.2646,0.26458 0.2646,-0.26458 m -4.7625,0.26458 -0.2646,0.26459 0.2646,-0.26459 m 5.5562,0 -0.2645,0.26459 0.2645,-0.26459 m 3.6169,0.17648 -0.09,0.17621 0.09,-0.17621 m 0.8811,0.0881 -0.2646,0.26458 0.2646,-0.26458 m 20.6375,0 -0.2646,0.26458 0.2646,-0.26458 m 6.0854,0 -0.2646,0.26458 0.2646,-0.26458 m -31.75,0.26458 -0.2646,0.26458 0.2646,-0.26458 m 0.5291,0 -0.2645,0.26458 0.2645,-0.26458 m 5.2917,0.35269 c 0.2037,0 0.042,0.13203 -0.087,0.0884 l 0.087,-0.0884 m 12.9646,-0.0881 -0.2646,0.26459 0.2646,-0.26459 m 7.6729,0.26459 -0.2646,0.26458 0.2646,-0.26458 m -22.7542,0.26458 -0.2645,0.26458 0.2645,-0.26458 m 28.575,0 -0.2645,0.26458 0.2645,-0.26458 m -25.6645,0.26458 -0.2646,0.26459 0.2646,-0.26459 m 9.525,0 -0.2646,0.26459 0.2646,-0.26459 m 20.6375,0.26459 0.2645,0.52916 h -0.5291 l 0.2646,-0.52916 m -10.3188,0.26458 -0.2646,0.26458 0.2646,-0.26458 m -33.8667,0.26458 -0.7937,0.52917 v -0.26458 l 0.7937,-0.26459 m 34.6605,0 -0.2646,0.26459 0.2646,-0.26459 m -2.1167,0.26459 -0.2646,0.26458 0.2646,-0.26458 m -35.1896,0.52916 -0.2646,0.26459 0.2646,-0.26459 m 38.6292,0.26459 -0.2646,0.26458 0.2646,-0.26458 m 9.525,0 -0.2646,0.26458 0.2646,-0.26458 m -42.5979,0.26458 -0.2646,0.26458 0.2646,-0.26458 m -33.073,0.79375 0.5292,0.26458 2.1167,0.26459 c 0.9101,3.79598 -5.2203,1.89124 -2.6459,-0.52917 m 73.8188,0.79375 -0.5292,0.52917 v -0.52917 h 0.5292 m -41.0104,0.52917 -0.2646,0.26458 0.2646,-0.26458 m -0.5292,0.26458 -0.2646,0.26458 0.2646,-0.26458 m 54.2396,0 -0.2646,0.26458 0.2646,-0.26458 m -46.8313,0.52917 -0.2645,0.26458 0.2645,-0.26458 m 32.8084,0 -0.2646,0.26458 0.2646,-0.26458 m 14.0229,0 -0.2646,0.26458 0.2646,-0.26458 m -61.3833,0.79375 -0.2646,0.26458 0.2646,-0.26458 m 53.7104,0 -0.2646,0.26458 0.2646,-0.26458 m 0.5291,0.26458 -0.2645,0.26458 0.2645,-0.26458 m -2.3812,0.26458 -0.2646,0.26459 0.2646,-0.26459 m 1.5875,0.52917 -0.2646,0.26459 0.2646,-0.26459 m -57.4146,0.26459 -0.5292,0.52916 0.5292,-0.52916 m 1.5875,0.52916 -0.2646,0.26459 0.2646,-0.26459 m 0.2646,0.52917 -0.7938,0.52917 0.7938,-0.52917 m 52.9167,0 -0.2646,0.26458 0.2646,-0.26458 m -14.023,0.26458 -0.2645,0.26459 0.2645,-0.26459 m -36.2479,0.26459 -0.2646,0.26458 0.2646,-0.26458 m 0.5292,0.26458 0.2646,0.52917 h -0.5292 l 0.2646,-0.52917 m -7.4083,0.26458 -0.2646,0.26459 0.2646,-0.26459 m 17.1979,0.26459 -0.2646,0.26458 0.2646,-0.26458 m -1.8521,1.05833 -0.2646,0.26458 0.2646,-0.26458 m 5.0271,0 -0.2646,0.26458 0.2646,-0.26458 m 6.6146,0 -0.2646,0.26458 0.2646,-0.26458 m 14.0229,0 v 0.26458 h -0.7938 l 0.7938,-0.26458 m -1.0584,0.26458 -0.2645,0.26459 0.2645,-0.26459 m -28.8395,0.52917 -0.2646,0.26458 0.2646,-0.26458 m 25.6645,0.26458 -0.2645,0.26459 0.2645,-0.26459 m -28.0458,1.32292 v 0.26458 h -0.7937 l 0.7937,-0.26458 m -8.7312,1.5875 -0.2646,0.26458 0.2646,-0.26458 m -0.2646,0.52917 -0.2646,0.26458 0.2646,-0.26458 m 42.0687,0.26458 -0.2646,0.26458 0.2646,-0.26458 m 3.4396,1.05833 -0.2646,0.26459 0.2646,-0.26459 m 20.9021,0 -0.2646,0.26459 0.2646,-0.26459 m -28.0458,0.26459 v 0.26458 h -0.7938 l 0.7938,-0.26458 m 3.9687,0 -0.2646,0.26458 0.2646,-0.26458 m 3.7042,0 -0.2646,0.26458 0.2646,-0.26458 m 21.6958,0 -0.2646,0.26458 0.2646,-0.26458 m -51.3292,0.26458 -0.2645,0.26458 0.2645,-0.26458 m 41.275,0 -0.2645,0.26458 0.2645,-0.26458 m -17.9916,0.26458 -0.2646,0.26459 0.2646,-0.26459 m -26.7229,0.26459 -0.5292,0.52916 0.5292,-0.52916 m 7.6729,0 -0.2646,0.26458 0.2646,-0.26458 m 37.5708,0 -0.2646,0.26458 0.2646,-0.26458 m 0.5292,0.0881 c 0.2037,0 0.042,0.13203 -0.087,0.0884 l 0.087,-0.0884 m 1.3229,0 c 0.2037,0 0.042,0.13203 -0.087,0.0884 l 0.087,-0.0884 m -0.5292,0.17648 -0.2646,0.26458 0.2646,-0.26458 m 2.0294,0.70564 -0.09,0.17621 0.09,-0.17621 m -726.19395,302.50687 c -4.0855,0.55033 -8.1645,2.08756 -12.1709,3.0771 -9.6752,2.38654 -19.8889,4.65402 -27.5166,11.51996 -15.8608,14.27427 -14.2666,40.53946 4.2333,51.95623 16.1454,9.96421 34.2419,2.11667 51.5938,1.97379 0.6159,4.16983 2.6355,8.43492 3.9687,12.43542 l 7.9375,23.8125 c 13.0678,39.20332 35.4613,75.14432 65.3521,103.72726 20.085,19.2061 43.589,35.483267 70.6437,43.005372 37.0385,10.297583 82.4812,7.156979 112.97705,-18.343563 12.618,-10.554229 24.9132,-25.355019 23.2384,-42.928649 -0.5662,-5.95312 -2.5453,-11.684 -5.8685,-16.66875 -2.6432,-3.95816 -6.2733,-7.66498 -10.2261,-10.31875 -12.3878,-8.31585 -27.87115,-8.35819 -40.48125,-0.34396 -9.2207,5.85788 -15.793,14.04673 -26.7229,17.16352 -10.5648,3.01625 -21.7609,2.11667 -32.2792,-0.64823 -15.8877,-4.17777 -29.6097,-15.35377 -41.0104,-26.75466 -25.7098,-25.70957 -43.7044,-60.12127 -51.0646,-95.77918 14.3447,-1.85208 28.5033,-5.18054 42.8625,-7.06966 39.2454,-5.15938 78.6712,-9.50119 117.475,-17.53659 24.08765,-4.98739 51.14925,-8.32908 68.76785,-27.25208 10.8479,-11.65225 13.8192,-26.54829 14.8643,-41.80417 1.9394,-28.33158 -2.5876,-57.74531 -9.4509,-85.19583 -6.4188,-25.67782 -16.2587,-50.44282 -28.0776,-74.08334 -12.8561,-25.71221 -28.3184,-50.18617 -49.80775,-69.6304 -20.3438,-18.40679 -43.2118,-33.21976 -71.1729,-35.89337 -14.8138,-1.41658 -29.6813,0.36142 -44.1855,3.547 -14.5483,3.19511 -28.7226,8.50636 -41.5395,16.14699 -16.4965,9.83404 -30.2887,22.9915 -41.5796,38.46936 -19.9046,27.28648 -34.2072,57.23996 -43.4284,89.69376 -9.589,33.7476 -12.8217,70.3236 -11.2901,105.30417 0.448,10.22879 0.8999,20.49197 1.8868,30.69166 0.5681,5.86846 1.95,11.83482 2.0717,17.72709 m 676.80415,-302.15418 -0.2646,0.26459 0.2646,-0.26459 m 45.2438,0.26459 -0.2646,0.26458 0.2646,-0.26458 m -10.0542,0.26458 -0.2646,0.26458 0.2646,-0.26458 m 15.0812,0.35269 c 0.2038,0 0.042,0.13203 -0.087,0.0884 l 0.087,-0.0884 m -56.8854,0.17648 -0.2646,0.26458 0.2646,-0.26458 m -5.2916,0.26458 -0.7938,0.52917 v -0.26459 l 0.7938,-0.26458 m 6.6145,0 -0.5291,0.52917 0.5291,-0.52917 m 42.3334,0 -0.2646,0.26458 0.2646,-0.26458 m 7.4083,0.35269 c 0.2037,0 0.042,0.13176 -0.087,0.0884 l 0.087,-0.0884 m 8.7313,0.17648 -0.2646,0.26458 0.2646,-0.26458 m 9.525,0 -0.2646,0.26458 0.2646,-0.26458 m -69.5855,0.26458 -0.2645,0.26458 0.2645,-0.26458 m 71.9667,0.52917 -0.5292,0.52916 0.5292,-0.52916 m 0.5292,0 -0.2646,0.26458 0.2646,-0.26458 m -20.6375,0.26458 -0.2646,0.26458 0.2646,-0.26458 m 14.2875,0 -0.2646,0.26458 0.2646,-0.26458 m -21.4313,0.61727 c 0.2038,0 0.042,0.13203 -0.087,0.0884 l 0.087,-0.0884 m -0.5291,0.17648 -0.2646,0.26458 0.2646,-0.26458 m -49.4771,0.52917 -0.2646,0.26458 0.2646,-0.26458 m 49.4771,0.52916 -0.2646,0.26459 0.2646,-0.26459 m 1.0583,1.05834 -0.2646,0.26458 0.2646,-0.26458 m 2.9104,0.26458 v 0.26458 l -1.0583,0.26459 1.0583,-0.52917 m 19.8438,0 -0.2646,0.26458 0.2646,-0.26458 m 7.4083,0 -0.2646,0.26458 0.2646,-0.26458 m -35.7188,0.26458 -0.2645,0.26459 0.2645,-0.26459 m 2.9105,0.0881 c 0.2037,0 0.042,0.13203 -0.087,0.0884 l 0.087,-0.0884 m 3.175,-0.0881 v 0.26459 h -0.7938 l 0.7938,-0.26459 m -4.498,0.26459 -0.2645,0.26458 0.2645,-0.26458 m 2.6459,0 v 0.26458 h -0.7938 l 0.7938,-0.26458 m 4.4979,0 -0.2646,0.26458 0.2646,-0.26458 m -54.5042,0.52916 -0.2646,0.26459 0.2646,-0.26459 m 51.3292,0 -0.2646,0.26459 0.2646,-0.26459 m 1.3229,0 -0.2646,0.26459 0.2646,-0.26459 m -7.4083,0.26459 -0.2646,0.26458 0.2646,-0.26458 m 3.4396,0.26458 -0.2646,0.26458 0.2646,-0.26458 m 7.4083,1.14644 c 0.2037,0 0.042,0.13203 -0.087,0.0884 l 0.087,-0.0884 m 7.1437,0 c 0.2038,0 0.042,0.13203 -0.087,0.0884 l 0.087,-0.0884 m -28.1331,0.35295 -0.09,0.17622 0.09,-0.17622 m 22.3123,-0.17647 -0.2646,0.26458 0.2646,-0.26458 m -25.6646,0.26458 -0.2646,0.26458 0.2646,-0.26458 m -32.0146,0.26458 -0.2645,0.26459 0.2645,-0.26459 m 59.0021,0 -0.5291,0.52917 0.5291,-0.52917 m 0,0.79375 -0.2646,0.26459 0.2646,-0.26459 m 0.5292,0.26459 -0.2646,0.26458 0.2646,-0.26458 m -25.1354,0.35269 c 0.2037,0 0.042,0.13202 -0.087,0.0884 l 0.087,-0.0884 m -1.0584,0.17647 -0.2645,0.26459 0.2645,-0.26459 m 28.8396,0.26459 -0.2646,0.26458 0.2646,-0.26458 m -28.0458,1.05833 -0.2646,0.26458 0.2646,-0.26458 m 61.3833,2.91042 -0.2646,0.26458 0.2646,-0.26458 m -91.0166,3.70416 v 0.26459 l 2.1166,1.05833 v 0.26458 c -2.7172,-0.86519 -3.5533,-0.90964 -6.35,0 3.511,5.57133 9.1996,11.7983 15.0813,14.68438 2.0373,0.99933 4.871,1.90024 7.1437,1.98437 0.8626,0.032 3.0401,0.0317 3.4396,0.79375 l 6.35,-1.05833 c 2.6009,0.94509 4.4106,0.4789 7.1543,0.33549 4.2201,-0.22093 8.4429,-0.44688 12.6895,-0.60007 l 0.058,6.87916 2.8522,5.02709 -1.323,4.7625 h 0.5292 l -1.3229,1.05833 -0.5292,-2.91042 h -1.8521 v -0.26458 l 1.323,-1.5875 c -1.2171,0.48683 -1.7198,1.05569 -1.5875,2.38125 -1.6113,-0.30639 -3.7042,-1.1512 -4.498,-2.64583 h -1.0583 l 1.3229,-0.52917 v -1.05833 h 0.2646 v 1.32291 c 0.5292,-0.26934 1.1959,-0.72257 1.3229,0 l 0.5292,-0.52916 2.1167,-0.52917 h 0.2645 l 0.7938,0.52917 v -0.26459 l -0.5292,-0.26458 c 1.5267,-2.11323 0.8441,-4.47172 0.7938,-6.87917 l -9.779,-1.31603 -3.4502,-1.06522 v 0.26459 h 1.0583 v 0.26458 h -1.3229 l 0.2646,0.52917 -2.1167,0.26458 c -1.852,-0.30374 -1.86,1.29699 -3.175,2.11667 l 1.0584,-2.38125 -4.4979,-0.77285 -5.8209,0.4183 -7.4083,-1.49754 -2.3813,-1.85208 c -1.7832,0.78819 -4.2968,0.0548 -4.4979,-2.11667 l -1.0583,0.52917 0.5292,-1.05833 -1.323,0.26458 c 1.1669,-1.86611 -2.1431,-3.16944 -3.3522,-4.10104 -1.1007,-0.85064 -1.7807,-2.45295 -2.5559,-3.57188 -1.3838,-1.99178 -4.482,-4.19338 -3.3523,-6.87916 1.8627,-0.0968 2.9872,-1.85606 5.0271,-1.84203 1.0583,0.007 2.2913,0.74612 1.0583,1.57744 m 1.0584,0.0881 c 0.2037,0 0.042,0.13176 -0.087,0.0884 l 0.087,-0.0884 m 0.971,0.35295 -0.09,0.17622 0.09,-0.17622 m 1.6748,0.61728 -0.5292,0.52916 0.5292,-0.52916 m 91.2813,0 -0.2646,0.26458 0.2646,-0.26458 m -15.875,2.64583 v 0.26458 c -0.5371,0.84746 0.4471,5.63034 1.7912,5.3893 0.844,-0.15187 1.397,-2.30531 1.6483,-3.00805 l 0.7938,0.26459 c -0.2963,0.7821 -0.9446,1.53061 -1.1298,2.33627 -0.1852,0.82179 0.7541,1.3208 0.6218,2.11217 -0.1852,1.11283 -2.9686,0.7112 -3.7253,0.57864 l -0.7938,1.5875 h 0.7938 3.175 c -0.7329,1.19697 -2.1776,1.05516 -3.4396,1.35731 -1.8309,0.43895 -3.3285,1.08532 -4.4979,2.61144 h 0.7937 v 0.26458 0.26459 l -2.3812,-0.26459 -0.7938,0.79375 v 0.26459 l 0.5292,0.26458 -0.2646,0.26458 -0.5292,-0.79375 -0.7937,1.05834 -1.3229,0.79375 1.3229,-0.26459 0.2646,0.79375 0.5291,-0.26458 h 0.2646 v 0.26458 l -0.5292,0.26459 v 0.26458 l -0.2645,1.85208 h 0.2645 l 0.2646,-0.79375 h 0.2646 l 0.2646,1.05834 c -1.2277,0 -2.3892,0.23521 -2.9104,-1.05834 l -1.0584,0.26459 0.2646,-1.05834 c -1.5531,0 -4.5323,0.81492 -5.5562,-0.52916 l 3.4396,-0.52917 v 0.26458 h -0.5292 v 0.26459 c 2.7464,-1.15756 6.514,-2.9136 6.35,-6.08542 h 1.3229 l 1.0583,0.26458 -0.5291,-0.79375 c 0.6191,-0.20664 0.5344,-0.17303 0,-0.52916 l 0.5291,-0.79375 -1.0583,-0.26459 v -0.26458 l 1.8521,0.79375 v 0.26458 l -0.7938,0.26459 1.323,0.52916 c 1.0265,-1.79731 2.9606,-2.96809 2.6458,-5.29166 h -0.2646 c 0.1244,1.41525 -2.6326,5.0538 -3.4396,2.64583 l 0.7938,0.26458 v -1.32291 -0.26459 l -0.7938,-1.05833 1.3229,-0.26458 0.2646,0.79375 h 0.2646 l 0.2646,-0.79375 -1.8521,-0.26459 v -0.26458 l 1.3229,-0.52917 v -1.05833 h 0.2646 l 0.7938,0.52917 v 1.32291 c 1.2356,-1.7182 0.6641,-2.95989 0,-4.7625 l 1.5875,-0.26458 m -74.348,1.5875 v 0.26458 l -0.7937,0.26459 0.7937,-0.52917 m 1.0584,0.26458 -0.2646,0.26459 0.2646,-0.26459 m -2.3813,0.26459 -0.2646,1.05833 h -0.2645 l 0.5291,-1.05833 m 74.0834,0 -0.2646,0.26458 0.2646,-0.26458 m -69.85,1.85208 -0.2646,0.26458 0.2646,-0.26458 m 64.2937,0 -0.2646,0.26458 0.2646,-0.26458 m -61.3833,1.5875 v 0.26458 l -2.1167,-1.05833 2.1167,0.79375 m 40.2166,0 -1.3229,0.52917 v -0.26459 l 1.3229,-0.26458 m 1.5002,0.17648 -0.09,0.17621 0.09,-0.17621 m 1.6748,0.0881 -0.2645,1.05834 h -1.0584 v -1.05834 h 1.3229 m 1.323,0 0.2645,0.79375 -0.2645,-0.79375 m 6.6145,1.05834 -1.3229,0.52916 h -0.2646 l -1.3229,-1.32291 c 1.1457,-0.26829 2.2649,-0.28787 2.9104,0.79375 m -35.7187,-0.26459 0.2646,1.32292 -11.1125,-0.46408 -4.2334,-1.388 15.0813,0.52916 m 8.2021,-0.52916 2.1166,1.05833 2.1167,0.52917 0.5292,5.02708 -1.0584,-0.26458 -2.1166,0.52916 h -0.7938 l 1.3229,-2.38125 v -0.26458 h -0.7937 v -0.26458 c 1.0583,-0.30401 1.4975,-0.81915 1.8521,-1.85209 l -2.9104,0.26459 -0.5292,2.11666 -0.5292,-3.175 1.0584,-0.26458 -0.2646,-1.05833 m 8.7312,0 0.5292,0.79375 -0.5292,-0.79375 m 19.5792,0 0.5292,1.05833 c -0.7065,-0.19764 -0.9499,-0.41831 -0.5292,-1.05833 m 14.0229,0 0.2646,0.26458 -0.2646,-0.26458 m 1.3229,0 0.2646,0.26458 -0.2646,-0.26458 m -49.4771,0.26458 c -0.3175,0.96388 -0.8969,1.11257 -1.852,1.32292 0.3175,-0.96388 0.8969,-1.11258 1.852,-1.32292 m 0.7938,0 -0.2646,0.26458 0.2646,-0.26458 m 17.7271,0 0.2646,0.52917 -0.2646,-0.52917 m 11.6416,0 -0.2645,0.26458 0.2645,-0.26458 m -27.252,0.26458 -0.2646,0.26459 0.2646,-0.26459 m 26.7229,0.26459 0.7937,0.26458 v 0.26458 l -1.0583,-0.26458 0.2646,-0.26458 m 14.2875,0 0.5291,0.79375 -0.5291,-0.79375 m 2.3812,0 -0.2646,0.26458 0.2646,-0.26458 m -45.2437,0.35269 c 0.2037,0 0.042,0.13202 -0.087,0.0884 l 0.087,-0.0884 m 2.8231,0.0884 -0.09,0.17621 0.09,-0.17621 m -35.6315,0.0881 v 0.26459 l -1.852,0.79375 0.2645,-0.79375 1.5875,-0.26459 m 1.0584,0 -0.5292,0.52917 0.2646,0.52917 -0.5292,0.52916 h -0.2646 l 1.0584,-1.5875 m 2.3812,1.05834 v 0.26458 c -0.754,0.16431 -1.4658,0.34025 -1.5875,-0.52917 l -0.7937,0.26459 h 2.3812 m 2.3813,-0.26459 0.2646,0.26459 -0.2646,-0.26459 m 70.3791,0 -0.2645,0.26459 0.2645,-0.26459 m -77.5229,0.52917 -0.2646,0.26458 0.2646,-0.26458 m 7.6729,0 2.3813,2.11667 -2.3813,-2.11667 m 23.2834,0.26458 v 0.79375 h -0.5292 v -0.79375 h 0.5292 m 10.0541,0 0.2646,0.52917 h -0.5291 l 0.2645,-0.52917 m 25.8419,0.17648 -0.09,0.17621 0.09,-0.17621 m 2.9977,-0.17648 -0.5291,1.85209 c 0.8016,0.0569 1.0451,-0.0352 1.3229,-0.79375 h 0.2646 l 0.5291,1.32291 v 1.32292 l 1.0584,-0.26458 -0.2646,-0.79375 1.0583,-0.26459 0.2646,1.05834 -4.2333,0.26458 0.2645,-0.79375 -2.3812,-0.26458 -0.5292,-1.5875 3.175,-1.05834 m 7.9375,0.26459 -0.2646,0.26458 0.2646,-0.26458 m -73.5541,0.26458 -0.2646,0.26458 0.2646,-0.26458 m 1.852,0.52917 -0.5291,0.52916 0.5291,-0.52916 m 61.1188,0 0.2646,0.26458 -0.2646,-0.26458 m 10.0542,0.0881 c 0.2037,0 0.042,0.13203 -0.087,0.0884 l 0.087,-0.0884 m -72.7605,0.26459 c 0.2038,0 0.042,0.13176 -0.087,0.0884 l 0.087,-0.0884 m 2.9105,0 c 0.2037,0 0.042,0.13176 -0.087,0.0884 l 0.087,-0.0884 m 0.7937,-0.0881 0.5292,0.52917 -0.5292,-0.52917 m 67.7333,0 -0.2645,0.26458 0.2645,-0.26458 m -23.0187,0.26458 v 0.79375 h -0.2646 l 0.2646,-0.79375 m 22.4896,0 0.7937,1.85209 h -0.2646 l -1.3229,-1.32292 0.7938,-0.52917 m 2.6458,0 -0.2646,0.26459 0.2646,-0.26459 m -72.8477,0.44106 -0.09,0.17622 0.09,-0.17622 m 0.881,-0.17647 -0.5291,0.52916 v -0.52916 h 0.5291 m 34.3959,0 v 0.52916 l 0.5291,-0.52916 h -0.5291 m 33.3375,0.26458 0.2646,0.52917 -0.2646,-0.52917 m -67.4688,0.26458 -0.2646,0.26459 0.2646,-0.26459 m 32.2792,0 c 0.5874,0.89509 0.762,1.57718 0,2.38125 v -2.38125 m 39.4229,0.26459 -0.7937,0.79375 0.7937,-0.79375 m -3.7042,0.26458 0.2646,1.05833 h -0.2646 v -1.05833 m -65.8812,0.26458 -0.2646,0.26459 0.2646,-0.26459 m -5.0271,0.26459 -0.2646,0.26458 0.2646,-0.26458 m -3.175,0.26458 -0.2646,0.26458 0.2646,-0.26458 m 74.8771,0.26458 -0.2646,0.26459 0.2646,-0.26459 m -73.2896,0.26459 -0.2646,0.26458 0.2646,-0.26458 m 11.9063,1.14644 c 0.2037,0 0.042,0.13176 -0.087,0.0884 l 0.087,-0.0884 m 0.7937,0.97022 -0.7937,-0.52916 0.7937,0.52916 m 0.5292,-0.52916 -0.2646,0.26458 0.2646,-0.26458 m -10.5834,0.26458 -0.2645,0.26458 0.2645,-0.26458 m -1.1456,0.44106 -0.09,0.17621 0.09,-0.17621 m 9.6123,-0.17648 -0.2646,0.26459 0.2646,-0.26459 m 29.1042,0.52917 v 0.26458 c 2.7437,1.21391 6.5246,2.0918 9.525,2.11667 -0.2329,-4.2328 -6.6887,-2.74003 -9.525,-2.38125 m -39.6875,-0.26458 -0.2646,0.26458 0.2646,-0.26458 m 472.2812,0 v 323.85 h 81.4917 v -323.85 h -81.4917 m -442.1187,0.26458 v 0.26458 l 1.0583,0.26459 v -0.26459 l -1.0583,-0.26458 m 4.4979,0 0.2646,0.26458 -0.2646,-0.26458 m -32.5438,0.52917 -0.2645,0.26458 0.2645,-0.26458 m 72.7605,0.26458 h 1.3229 l -0.2646,0.79375 -1.0583,-0.79375 m -10.5834,0.26458 0.5292,3.175 -3.175,4.49792 2.6458,-7.67292 m 8.7313,0.26459 0.2646,0.26458 -0.2646,-0.26458 m -69.3209,0.79375 -0.2645,0.26458 0.2645,-0.26458 m 74.5252,0.17647 -0.09,0.17622 0.09,-0.17622 m -2.5585,0.0881 0.2646,0.79375 -0.2646,-0.79375 m -59.2667,0.26458 -0.2645,0.26459 0.2645,-0.26459 m -12.4354,0.26459 -0.2646,0.26458 0.2646,-0.26458 m 60.0604,1.05833 0.2646,0.26458 -0.2646,-0.26458 m 11.1125,2.73394 c 0.2038,0 0.042,0.13176 -0.087,0.0884 l 0.087,-0.0884 m 1.0584,0.17648 -0.2646,0.26458 0.2646,-0.26458 m -64.8229,0.52916 v 0.52917 h -0.5292 l 0.5292,-0.52917 m 67.4687,0.79375 -1.0583,-0.26458 0.5291,-0.52917 0.5292,0.79375 m 0.2646,-0.79375 -0.2646,0.26459 0.2646,-0.26459 m -68.5271,0.26459 -0.2646,0.26458 0.2646,-0.26458 m 65.6167,0 -0.2646,0.26458 0.2646,-0.26458 m -4.2334,0.26458 -0.2645,0.26458 0.2645,-0.26458 m -17.4625,0.26458 -0.2645,0.26459 0.2645,-0.26459 m 19.3146,0 -0.7937,0.79375 0.7937,-0.79375 m -65.6166,0.26459 0.2645,0.52916 -0.2645,-0.52916 m 8.202,0 -0.2645,0.26458 0.2645,-0.26458 m 11.9063,0.52916 c -0.6509,2.26537 -2.9316,2.71754 -4.7625,1.5875 l 0.5292,-1.5875 0.7937,0.26459 0.2646,-0.79375 3.175,0.52916 m 2.3812,-0.52916 -0.2645,0.26458 0.2645,-0.26458 m 44.45,0 -0.2645,0.26458 0.2645,-0.26458 m -56.3562,0.52916 v 0.26459 l -1.0583,0.79375 -1.5875,-0.26459 c 0.7937,-0.95276 1.4552,-1.06283 2.6458,-0.79375 m 27.2521,-0.26458 -0.2646,0.26458 0.2646,-0.26458 m 7.6729,0.0881 c 0.2037,0 0.042,0.13176 -0.087,0.0884 l 0.087,-0.0884 m 22.225,-0.0881 -0.2646,0.26458 0.2646,-0.26458 m -55.0333,0.35269 c 0.2037,0 0.042,0.13176 -0.087,0.0884 l 0.087,-0.0884 m 52.9166,-0.0881 -0.2646,0.26459 0.2646,-0.26459 m -20.3729,0.26459 -0.5292,0.52916 v -0.52916 h 0.5292 m 17.9917,0 -0.7938,1.05833 0.7938,-1.05833 m -46.0375,0.26458 v 0.52917 h 0.5291 l -0.5291,-0.52917 m 35.1896,0 -0.2646,0.26458 0.2646,-0.26458 m 12.9645,0 -0.2645,0.26458 0.2645,-0.26458 m -51.8583,0.26458 v 0.26459 l -0.5292,0.26458 v 0.26458 l 0.5292,0.79375 -2.6458,0.26459 c 0.3969,-1.37187 1.3414,-1.59438 2.6458,-1.85209 m 5.8208,0 0.2646,0.26459 -0.2646,-0.26459 m 1.323,0 -0.2646,0.26459 0.2646,-0.26459 m 31.2208,0 v 0.26459 l -1.0583,0.26458 1.0583,-0.52917 m -53.975,0.26459 -0.2646,0.26458 0.2646,-0.26458 m 1.8521,0 -0.2646,0.26458 0.2646,-0.26458 m 1.0583,0 -0.2646,0.26458 0.2646,-0.26458 m 62.7063,0 -0.5292,0.52916 0.5292,-0.52916 m -41.275,0.26458 -0.7938,0.79375 0.7938,-0.79375 m 12.4354,0 -0.2646,0.52917 h 0.5292 l -0.2646,-0.52917 m 15.875,0 -0.2646,0.26458 0.2646,-0.26458 m -48.6834,0.26458 -0.2645,0.26459 0.2645,-0.26459 m 29.898,0 0.7937,0.52917 v 0.26458 l -0.7937,-0.79375 m 4.9397,0.0881 0.1747,0.0884 -0.1747,-0.0884 m 0.8811,-0.0881 -1.0583,1.32292 1.3229,-0.26458 -0.2646,-1.05834 m 23.8125,0 v 0.52917 l -0.5292,-0.52917 h 0.5292 m 3.9687,0 -0.2645,0.26459 0.2645,-0.26459 m -67.2041,0.26459 -0.2646,0.26458 0.2646,-0.26458 m 16.6687,0 -0.2646,0.26458 0.2646,-0.26458 m 13.4938,0 -0.2646,0.26458 0.2646,-0.26458 m 23.0187,0 -0.7937,0.52916 v -0.26458 l 0.7937,-0.26458 m 12.7,0 -0.2646,0.26458 0.2646,-0.26458 m -62.9708,0.26458 0.5292,0.79375 -0.5292,-0.79375 m 34.3958,0 0.2646,0.26458 -0.2646,-0.26458 m 24.6063,0 -0.2646,1.05833 h -0.2646 v -1.05833 h 0.5292 m -57.2373,0.44106 -0.09,0.17621 0.09,-0.17621 m 7.7602,-0.17648 -0.2646,0.26459 0.2646,-0.26459 m 9.525,0 -0.2646,0.79375 c 1.8415,-0.54451 3.0903,0.0632 4.2333,1.5875 l -5.027,-0.26458 0.7937,-1.32292 h -0.5292 l 0.7938,-0.79375 m 16.9333,0 -0.2646,0.26459 0.2646,-0.26459 m 19.05,0 -0.2646,0.26459 0.2646,-0.26459 m 7.0565,0.17648 -0.09,0.17621 0.09,-0.17621 m 3.5269,0.0881 v 0.26458 l -1.5875,-0.26458 h 1.5875 m -59.7959,1.32291 c -1.0266,0.0783 -1.4737,-0.077 -1.8521,-1.05833 l 0.2646,-0.26458 1.5875,1.32291 m 17.9917,-1.32291 -0.2646,0.26458 0.2646,-0.26458 m 3.175,0 v 0.79375 h -0.2646 l 0.2646,-0.79375 m 25.1354,0 -0.2646,0.26458 0.2646,-0.26458 m -50.8,0.26458 -0.2646,0.26458 0.2646,-0.26458 m 47.8896,0 -0.2646,0.26458 0.2646,-0.26458 m 5.5562,0 c 0.1535,0.71729 0.2038,0.89826 -0.5291,1.05833 v -0.26458 l 0.5291,-0.26458 -0.5291,-0.26459 0.5291,-0.26458 m -40.2166,0.26458 -0.2646,0.26459 0.2646,-0.26459 m 39.4229,0 -0.5292,0.79375 0.5292,-0.79375 m 2.9104,0 -0.2646,0.26459 0.2646,-0.26459 m 2.6458,0 -0.2645,0.26459 0.2645,-0.26459 m 5.0271,0 -1.3229,0.79375 0.7938,-0.79375 h 0.5291 m -61.3833,0.26459 v 0.26458 l -1.5875,0.26458 1.5875,-0.52916 m 21.1667,0 -0.2646,0.26458 0.2646,-0.26458 m 3.7041,0 -0.2646,0.26458 0.2646,-0.26458 m 5.0271,0 -0.2646,0.26458 0.2646,-0.26458 m 12.1708,0.26458 -2.1166,1.85208 -0.5292,-0.26458 c 0.598,-0.98716 1.4923,-1.56104 2.6458,-1.5875 m 10.3188,-0.17648 c 0.2037,0 0.042,0.13203 -0.087,0.0884 l 0.087,-0.0884 m 9.525,0 c 0.2037,0 0.042,0.13177 -0.087,0.0884 l 0.087,-0.0884 m -60.325,0.17648 0.2646,0.26458 -0.2646,-0.26458 m 21.9604,0 -0.2646,0.26458 0.2646,-0.26458 m 0.7938,0 -0.2646,0.26458 0.2646,-0.26458 m 2.9104,0 -0.2646,0.26458 0.2646,-0.26458 m -32.8084,0.26458 -0.2645,0.26459 0.2645,-0.26459 m 3.7042,0 v 0.79375 h -0.2646 l -0.2646,-0.79375 h 0.5292 m 22.4896,0.0881 c 0.2037,0 0.042,0.13176 -0.087,0.0884 l 0.087,-0.0884 m 2.3812,-0.0881 -0.2645,0.26459 0.2645,-0.26459 m 31.75,0 -0.2645,0.26459 0.2645,-0.26459 m -32.2791,1.32292 -1.0584,0.26458 v -0.26458 l 0.5292,-0.26458 -1.0583,-0.26459 v 1.32292 h -0.2646 l -0.5292,-0.79375 c 0.7885,-0.85302 1.9209,-1.37001 2.3813,0 m 34.6604,-1.05833 v 0.52916 h -0.5292 l 0.5292,-0.52916 m -32.2792,1.05833 h -1.3229 l 0.2646,-0.79375 1.0583,0.79375 m 0.5292,-0.79375 -0.2646,0.26458 0.2646,-0.26458 m 30.6917,0 v 0.26458 l -0.7938,0.26459 0.7938,-0.52917 m -52.4748,0.44106 -0.09,0.17621 0.09,-0.17621 m 50.0935,-0.17648 -0.2646,0.26459 0.2646,-0.26459 m 0.971,0.17648 -0.09,0.17621 0.09,-0.17621 m -39.8647,0.17621 c 0.2037,0 0.042,0.13203 -0.087,0.0884 l 0.087,-0.0884 m 36.6897,0.0884 -0.09,0.17622 0.09,-0.17622 m -37.2189,0.0881 1.5875,1.05833 v 0.26459 l -1.5875,-0.26459 v -1.05833 m 6.35,0 0.2646,0.26458 -0.2646,-0.26458 m 6.35,0.0881 c 0.2037,0 0.042,0.13202 -0.087,0.0884 l 0.087,-0.0884 m 25.6646,0 c 0.2037,0 0.042,0.13202 -0.087,0.0884 l 0.087,-0.0884 m 1.5875,-0.0881 v 0.26458 l -1.3229,0.52917 0.2645,-0.79375 h 1.0584 m -27.5167,0.88186 c 0.2037,0 0.042,0.13202 -0.087,0.0884 l 0.087,-0.0884 m 2.3813,-0.0881 v 0.26458 h -0.7938 l 0.7938,-0.26458 m -11.9063,0.26458 v 0.26459 h -1.0583 l 1.0583,-0.26459 m 3.7042,0 -0.2646,0.26459 0.2646,-0.26459 m -15.6104,1.05834 -0.7938,-0.26459 0.7938,0.26459 m 6.0854,0.0873 c 0.2037,0 0.042,0.13229 -0.087,0.09 l 0.087,-0.09 m 2.9104,0.44185 0.2646,0.52917 -0.2646,-0.52917 m 0.5292,0.79375 -0.2646,0.26459 0.2646,-0.26459 m -14.5521,0.52917 0.2646,1.32292 -1.0584,-0.52917 0.7938,-0.79375 m -1.4102,0.44185 -0.09,0.17463 0.09,-0.17463 m 43.7435,0.0873 -0.2646,0.26458 0.2646,-0.26458 m -25.6646,0.79375 -0.2646,0.26458 0.2646,-0.26458 m -14.2875,0.26458 -0.2646,0.26458 0.2646,-0.26458 m 2.1167,0.3519 c 0.2037,0 0.042,0.13229 -0.087,0.0899 l 0.087,-0.0899 m 1.0583,-0.0873 -0.2646,0.26459 0.2646,-0.26459 m -5.2916,0.26459 0.5291,0.79375 -0.5291,-0.79375 m 1.3229,0.52916 0.5291,1.05834 h -0.2645 l -0.2646,-1.05834 m 2.6458,0.79375 0.5292,1.05834 h -1.0584 l 0.5292,-1.05834 m 12.4354,0.26459 0.5292,0.79375 -1.0583,-0.52917 0.5291,-0.26458 m 8.7313,0 -0.2646,0.26458 0.2646,-0.26458 m -19.5792,0.26458 h 1.3229 v 0.26458 l -0.5291,0.52917 -0.7938,-0.79375 m 17.4625,0 -0.2646,0.26458 0.2646,-0.26458 m 1.5875,0.52917 -0.2646,0.26458 0.2646,-0.26458 m 0.5292,0.26458 -0.2646,0.26458 0.2646,-0.26458 m -2.3813,0.26458 v 0.26459 l -1.0583,0.26458 v -0.26458 l 1.0583,-0.26459 m 3.175,0 1.0584,0.79375 -1.323,1.05834 -1.0583,-0.26459 v -0.52916 h -2.1167 v -0.26459 l 1.323,0.26459 h 0.2645 l 0.7938,-0.52917 1.3229,0.79375 -0.2646,-1.32292 m 2.6459,0.26459 v 0.26458 h -1.323 l 1.323,-0.26458 m -8.2021,0.52916 1.0583,1.05834 -1.3229,-0.79375 0.2646,-0.26459 m 1.5875,0.26459 1.0583,0.79375 -1.0583,-0.79375 m 6.6146,0.26458 v 0.26458 h -0.5292 v 0.26459 l 1.5875,0.52916 1.5875,-0.26458 -0.5292,1.5875 1.3229,-0.79375 -0.2645,0.52917 h 0.2645 c 1.0002,-0.66411 3.6539,-1.84944 3.4396,0.26458 h 2.6459 l -0.5292,0.79375 h 1.0583 v 0.26458 1.05834 l -1.0583,0.26458 -0.5292,-0.79375 c 0,-0.81756 -0.6297,-0.60325 -1.3229,-0.52917 l -3.4396,-1.32291 v 0.26458 h 1.0584 v 0.26458 l -5.5563,0.79375 v 0.26459 l 0.7938,1.32291 h -1.5875 v -0.26458 h 1.3229 c -0.3942,-0.65881 -1.8389,-1.26471 -1.5875,-0.26458 l -0.5292,-0.52917 -4.4979,-0.26458 v -0.26459 l 2.6458,0.52917 2.8258,-1.01335 0.8784,-2.9554 h 0.5292 m -7.673,0.79375 h 1.0584 v 0.26458 l -0.2646,0.52917 v 0.26458 h -1.0583 l 0.2645,-1.05833 m 6.35,1.32292 -0.7937,-0.79375 -0.7938,0.26458 c 0.6615,-0.7276 1.3018,-0.2884 1.5875,0.52917 m -5.027,-0.44186 c 0.2037,0 0.042,0.13229 -0.087,0.09 l 0.087,-0.09 m 1.0583,-0.0873 -0.2646,0.26458 0.2646,-0.26458 m 1.5875,0 -0.2646,0.26458 0.2646,-0.26458 m 0.5292,0 0.2645,0.52917 -0.2645,-0.52917 m 9.2604,0.52917 v 0.52916 h 0.5291 v -0.52916 h -0.5291 m -2.6459,0.26458 0.2646,0.26458 -0.2646,-0.26458 m 5.1144,0.44185 0.09,0.17463 -0.09,-0.17463 m -2.4685,0.43921 c 0.2037,0 0.042,0.13229 -0.087,0.09 l 0.087,-0.09 m -0.5292,0.44186 -0.5292,0.52916 v -0.52916 h 0.5292 m 2.3813,0.26458 v 1.05833 l -2.3813,-0.79375 2.3813,-0.26458 m -15.3459,0 2.6459,0.79375 v 0.26458 c -0.7488,-0.14287 -2.8311,-0.0794 -2.6459,-1.05833 m 13.7584,0 0.2645,0.26458 -0.2645,-0.26458 m -17.4625,0.79375 v 0.26458 l -1.323,-0.26458 h 1.323 m 8.202,-0.26458 v 0.26458 h -1.3229 l 1.3229,-0.26458 m 1.0584,0.26458 -1.0584,0.52917 1.0584,-0.52917 m -1.6748,0.44185 -0.09,0.17463 0.09,-0.17463 m 3.2623,0.61648 -1.5875,-0.26458 1.5875,0.26458 m -632.88335,218.81043 c -7.2488,-57.35903 -3.4388,-121.00719 28.0326,-171.18543 4.8038,-7.65968 9.6165,-15.40139 15.8985,-21.96041 13.1197,-13.69748 32.1551,-22.69332 51.3189,-18.78542 19.0569,3.88673 33.0536,18.39648 44.0319,33.60208 20.8333,28.84753 33.4963,61.06055 41.6613,95.51459 2.884,12.16819 5.006,24.55863 5.8579,37.04167 0.1932,2.82575 0.5847,5.64356 0.8123,8.46666 0.077,0.96838 0.5847,2.42888 -0.032,3.30465 -0.5979,0.85196 -2.241,0.98954 -3.167,1.28323 -2.8073,0.89958 -5.633,1.7436 -8.4667,2.55588 -11.6073,3.3311 -23.5426,6.01397 -35.4542,8.00364 -32.3326,5.3975 -64.9824,8.25236 -97.3666,13.27415 -9.8446,1.52929 -19.6424,3.40783 -29.3688,5.55625 -4.5497,1.00541 -9.1532,2.70669 -13.7583,3.32846 m 623.62295,-205.75853 c 0.2037,0 0.042,0.13229 -0.087,0.09 l 0.087,-0.09 m -0.7938,0.70644 0.2646,0.26458 -0.2646,-0.26458 m 0.7938,0.26458 0.2645,0.26458 -0.2645,-0.26458 m 28.575,1.32292 -1.0584,0.52916 v 0.79375 l 0.7938,-0.26458 0.2646,1.32292 v -2.38125 m -21.9605,2.11666 -0.2645,0.26459 0.2645,-0.26459 m 17.7271,4.23334 v 0.26458 h 0.5292 v 0.26458 h -1.3229 v 0.26459 l 4.4979,0.26458 c -0.4286,-1.96585 -2.1934,-1.45785 -3.7042,-1.05833 m -162.1895,190.23542 c -5.9161,2.23837 -11.3851,6.50875 -17.198,9.1784 -13.9013,6.38439 -28.6782,10.14941 -43.9209,11.21833 -8.3079,0.58208 -16.7693,0.38629 -24.6062,-2.78871 -11.9671,-4.84981 -19.3199,-16.50735 -22.0716,-28.72052 -3.9184,-17.38842 -4.3444,-37.15544 1.3468,-54.23959 3.0215,-9.0752 7.9613,-17.70327 15.9623,-23.27275 17.7747,-12.37191 42.8228,-4.46087 61.1187,2.3839 4.5667,1.70656 9.0726,4.26244 13.7584,5.54302 1.3785,-5.04825 3.8259,-9.95892 5.768,-14.81667 3.9793,-9.95098 8.0936,-19.87021 11.8745,-29.89791 1.4049,-3.72534 2.9448,-7.41628 4.4238,-11.1125 0.4207,-1.05305 1.6748,-3.02419 1.2938,-4.17513 -0.3678,-1.11919 -3.0454,-1.89971 -4.0455,-2.35744 -4.0746,-1.8706 -8.255,-3.54541 -12.4354,-5.15937 -18.1346,-7.00088 -38.2853,-10.53306 -57.6792,-10.53306 -33.5095,0 -66.7703,6.80772 -92.3396,29.94289 -4.9424,4.47146 -9.3901,9.85573 -13.2186,15.30086 -4.8022,6.82889 -8.8371,14.42243 -11.8057,22.225 -5.3314,14.02027 -8.0619,28.73639 -9.0832,43.65625 -2.8813,42.08198 7.4084,90.54306 45.22,114.91119 9.6044,6.1886 20.1877,10.54364 31.2208,13.44348 14.6659,3.84969 30.1572,5.13821 45.2438,4.47675 19.1981,-0.84138 38.6318,-3.41577 56.0917,-12.11527 3.6724,-1.83092 7.321,-3.61157 10.8479,-5.72823 1.1721,-0.70379 3.2041,-1.50813 3.9608,-2.68023 0.7382,-1.14036 0.2726,-3.57188 0.2726,-4.88686 v -12.7 -47.09583 m 57.9437,-137.58334 c 4.5641,13.40644 11.4326,26.46627 17.1609,39.42292 2.0478,4.6355 4.7307,9.41652 6.1224,14.2875 5.4055,-0.96308 10.93,-4.56935 16.1396,-6.43202 4.2995,-1.53723 8.5725,-3.18823 12.9646,-4.45294 3.5242,-1.016 7.022,-2.08227 10.5833,-2.97127 17.571,-4.39473 46.7493,-9.1149 53.3321,13.85623 1.4234,4.96888 1.4367,9.96156 1.4367,15.08125 -10.7527,0 -21.545,0.57679 -32.2792,1.04775 -29.2259,1.28058 -60.9229,4.11956 -85.1958,22.36258 -18.5976,13.9753 -25.3709,37.5338 -23.8363,59.93342 1.3785,20.14802 6.3897,39.41234 21.7196,53.68661 3.5163,3.27554 7.4798,5.99546 11.6417,8.37671 13.9224,7.96396 30.3821,9.27629 46.0375,8.59102 15.4278,-0.67469 30.7869,-3.42371 44.1854,-11.50673 6.9268,-4.17777 13.3244,-9.76842 18.7404,-15.75594 1.7331,-1.91558 3.437,-3.8391 5.0933,-5.82083 0.6006,-0.71702 1.3229,-1.88913 2.3495,-1.99232 1.8309,-0.18785 3.8708,5.8764 4.5746,7.28398 l 8.7313,17.4625 c 0.7593,1.51871 1.8944,5.44513 3.4766,6.19125 1.2065,0.56621 3.3443,0.15875 4.6593,0.15875 h 11.3771 40.2166 v -119.85625 c 0,-22.91027 2.6512,-47.77052 -5.7705,-69.58542 -2.2225,-5.75733 -5.0245,-11.37973 -8.6307,-16.40416 -25.7863,-35.92248 -73.6653,-36.56013 -113.3925,-32.58873 -9.5356,0.9525 -18.9362,2.49502 -28.3104,4.48733 -14.5389,3.09033 -30.2128,7.59883 -43.1271,15.13681 m 265.6417,0 c 3.2861,9.64936 8.2655,18.9574 12.3242,28.31042 3.6143,8.33437 6.657,17.54717 11.2237,25.4 5.9213,-1.70392 11.6681,-4.86569 17.4625,-7.03262 14.6156,-5.46365 30.8266,-10.42988 46.5666,-10.42988 12.5466,0 24.9264,4.14602 28.7258,17.4625 1.4209,4.97152 1.4367,9.96156 1.4367,15.08125 -8.1227,0 -16.2322,0.59002 -24.3416,0.7911 -30.8504,0.75407 -65.5611,2.6035 -91.5459,21.47359 -19.6982,14.30602 -26.4345,37.17131 -25.4105,60.5499 1.0689,24.40781 9.5541,48.29175 31.496,61.52885 17.2984,10.43517 38.1846,10.98286 57.6791,8.89529 10.7262,-1.15093 21.7408,-3.53218 31.2208,-8.88735 8.3318,-4.70694 15.6898,-10.89025 22.2012,-17.88054 1.7463,-1.87325 3.3814,-3.86292 5.0298,-5.82084 0.5768,-0.68527 1.3361,-1.83885 2.3759,-1.72773 1.7992,0.1905 3.5851,5.80232 4.326,7.28398 3.8867,7.77346 8.8714,15.6554 11.8401,23.8125 h 56.6208 V -383.9332 c 0,-22.89175 2.6882,-47.83931 -5.9399,-69.58541 -2.2966,-5.78909 -5.1461,-11.37444 -8.845,-16.40417 -26.7494,-36.35111 -76.7054,-36.55484 -117.2422,-31.5595 -8.0962,0.99483 -16.0946,2.28864 -24.0771,3.98727 -14.5441,3.09298 -30.2101,7.59619 -43.127,15.13681 m -147.373,113.50626 c 0,9.64935 1.0954,20.02102 -1.7039,29.36875 -4.2174,14.097 -18.4044,21.56883 -32.1627,22.51339 -6.5352,0.44715 -13.8854,-0.4445 -19.0474,-4.90273 -3.8364,-3.31523 -5.2837,-8.26029 -5.8658,-13.11275 -1.3335,-11.15219 3.3258,-21.60852 13.2715,-27.13566 5.1488,-2.8628 11.1469,-4.29684 16.9333,-5.10911 9.316,-1.30969 19.1718,-1.62189 28.575,-1.62189 m 265.6417,0 c 0,9.37947 1.2224,19.75379 -1.5134,28.83958 -4.2704,14.17902 -18.0472,22.07419 -32.0887,23.04256 -6.7098,0.46302 -13.9568,-0.4101 -19.3119,-4.90802 -3.8841,-3.2676 -5.3843,-8.53281 -5.8685,-13.37204 -1.1271,-11.27919 3.4184,-21.46036 13.5388,-27.02454 4.9477,-2.71727 10.8426,-4.16719 16.4041,-4.91596 9.4351,-1.27 19.3278,-1.66158 28.8396,-1.66158 m -623.623,179.24463 c -8.5672,1.55575 -8.6492,14.4436 -0.2646,16.36712 5.0086,1.1483 11.266,0.17992 16.4042,0.17992 h 33.8667 107.4208 478.8959 155.3104 37.0417 c 4.7704,0 10.9299,1.14565 14.0441,-3.43958 3.3866,-4.98211 0.709,-12.02002 -5.3129,-13.10746 -4.0137,-0.72231 -8.6254,-0.12171 -12.7,-0.12171 h -25.4 -157.1625 -435.5041 -139.7001 -44.9792 c -6.9982,0 -15.0786,-1.12712 -21.9604,0.12171 m 627.8563,49.83427 c -2.7728,-0.0714 -6.2071,1.68804 -8.9958,2.1881 -0.8864,0.15875 -2.0585,0.32544 -2.3627,1.33086 -0.6509,2.14312 2.196,1.8706 3.421,2.23837 1.4129,0.42334 2.1749,1.60867 2.3363,3.02419 1.1139,9.78429 0.045,20.30942 0.045,30.1625 v 9.789586 c 0,1.571625 0.1693,3.436938 -0.9075,4.733396 -1.2383,1.49225 -3.3444,0.627063 -4.49,1.775354 -0.8969,0.902229 -0.2064,2.267479 0.9049,2.447396 4.0957,0.66675 8.8053,0.03969 12.9593,0.03969 1.0953,0 3.5216,0.455083 4.2254,-0.613834 0.4656,-0.706437 0.2249,-1.793875 -0.561,-2.137833 -2.3706,-1.039813 -4.5667,-0.425979 -4.9424,-3.862917 -1.0424,-9.548813 -0.045,-19.759088 -0.045,-29.368748 v -16.66879 c 0,-1.51342 0.6906,-5.01915 -1.5875,-5.07736 m 22.7489,-0.008 c -2.7993,-0.13758 -6.1833,1.71185 -8.9905,2.19604 -0.9261,0.15875 -2.1141,0.29104 -2.4818,1.31763 -0.4445,1.24354 0.6747,1.79916 1.688,1.98437 1.9632,0.35454 3.7359,0.64559 3.945,3.02684 0.8704,9.97743 0.024,20.40731 0.024,30.42708 v 10.054167 c 0,1.613959 0.2513,3.413125 -0.934,4.701646 -1.225,1.330855 -3.3153,0.460375 -4.4265,1.579563 -0.8758,0.883708 -0.2011,2.180167 0.8731,2.389187 4.0958,0.796396 9.0435,0.06086 13.2186,0.06086 1.0954,0 3.4819,0.455083 4.1857,-0.613834 0.4683,-0.709083 0.2858,-1.783291 -0.5212,-2.137833 -2.1061,-0.923396 -4.6144,-0.116417 -4.9583,-3.33375 -1.0398,-9.723438 -0.029,-20.113626 -0.029,-29.897916 v -16.66875 c 0,-1.48696 0.6218,-4.97417 -1.5928,-5.0853 m -206.8989,2.31511 c -6.723,1.60073 -4.011,10.65212 2.3813,9.20485 6.4505,-1.4605 4.0084,-10.72621 -2.3813,-9.20485 m 226.7479,0 c -6.596,1.57162 -4.2439,10.55158 2.1167,9.24719 6.5035,-1.3335 4.4053,-10.8003 -2.1167,-9.24719 m -515.379,5.03766 c -1.1457,0.37042 -1.4579,2.02671 -0.4736,2.77548 1.7488,1.3335 5.9584,0.76465 5.3313,4.21746 -0.1164,0.635 -0.3731,1.25413 -0.6032,1.85209 -4.2863,11.08075 -8.9403,22.33083 -14.015,33.072913 -0.807,1.706562 -1.6986,3.749146 -3.4978,4.611687 -1.1166,0.534459 -2.6379,0.127 -3.6195,0.907521 -0.762,0.605896 -0.8043,2.100792 0.029,2.674938 0.9128,0.629708 2.7966,0.272521 3.855,0.272521 h 10.0541 c 1.1086,0 3.4317,0.439208 4.1487,-0.642938 2.2595,-3.407833 -5.5033,-2.479146 -6.6596,-3.704167 -1.2779,-1.357312 -0.029,-3.960812 0.4445,-5.442479 0.4842,-1.502833 1.2727,-4.947708 2.667,-5.812896 1.0319,-0.640292 2.9925,-0.272521 4.1619,-0.272521 h 10.5834 c 1.2938,0 3.6169,-0.452437 4.5773,0.613834 1.4684,1.629833 4.5508,8.784166 2.958,10.705042 -1.4578,1.759479 -6.096,0.08731 -5.6435,3.227916 0.2752,1.905 3.0718,1.328209 4.4582,1.328209 h 11.1125 c 1.3415,0 3.4608,0.399521 4.7017,-0.15875 0.9181,-0.415396 1.1562,-2.082271 0.3942,-2.754313 -1.0425,-0.918104 -2.8522,-0.481542 -4.0137,-1.431396 -2.4051,-1.9685 -3.4555,-6.093354 -4.5747,-8.884708 -2.7993,-6.977063 -5.6753,-13.922373 -8.4667,-20.902083 -1.598,-3.99256 -2.9236,-8.64923 -5.4477,-12.17083 -2.4421,-3.40784 -8.3318,-5.41603 -12.4619,-4.08253 m 441.5605,34.509609 c 0.5424,3.151188 3.9581,7.077605 3.302,10.318751 -0.6086,2.992437 -7.6306,1.105958 -6.0167,4.722812 0.6112,1.367896 3.3576,0.833438 4.5667,0.833438 h 11.9063 c 1.1007,0 3.4766,0.452437 4.1857,-0.613834 0.3995,-0.597958 0.4392,-1.793875 -0.1482,-2.293937 -0.963,-0.814917 -2.6643,-0.481542 -3.7623,-1.272646 -2.339,-1.690688 -3.3232,-5.421313 -4.3498,-7.990417 -2.9342,-7.334246 -5.9584,-14.628816 -8.89,-21.960416 -1.6272,-4.06665 -2.958,-8.96408 -5.6938,-12.43542 -2.6088,-3.31258 -7.6385,-4.68577 -11.7634,-3.90789 -1.1695,0.2196 -2.1299,1.66158 -1.1695,2.70139 1.4949,1.60867 4.49,0.46302 5.4637,3.05859 0.9313,2.48443 -2.2701,7.52475 -3.302,9.78958 -3.81,8.35554 -7.1252,16.95979 -10.7474,25.399999 -0.8758,2.039938 -1.8679,4.643438 -4.0084,5.670021 -1.1166,0.534459 -2.6379,0.127 -3.6195,0.907521 -0.762,0.605896 -0.8044,2.100792 0.029,2.674938 0.9604,0.661458 3.0056,0.272521 4.1195,0.272521 h 10.3188 c 1.3308,0 3.6195,0.465666 3.9052,-1.328209 0.5821,-3.672416 -6.2732,-0.777875 -7.3183,-3.709458 -0.5186,-1.455209 0.5159,-3.630084 0.9657,-5.0165 0.4683,-1.449917 1.2224,-4.693709 2.5506,-5.548313 1.2435,-0.801687 4.0163,-0.272521 5.453,-0.272521 h 14.0229 m -585.2583,-7.672919 c 3.5851,1.06098 9.7737,0.73554 13.4938,0.21432 1.352,-0.1905 2.7225,-2.03465 1.2091,-3.07711 -0.7911,-0.54504 -2.1537,-0.31221 -3.0612,-0.31221 h -7.6729 c -0.942,0 -3.2676,0.41804 -3.8471,-0.5371 -0.6773,-1.12183 -0.1217,-3.98198 -0.1217,-5.28373 v -14.2875 c 4.1804,0 11.7898,-1.47108 15.0707,1.6166 1.6986,1.59809 2.2595,3.8444 2.7093,6.05632 0.2858,1.41287 0.4181,3.1115 2.0638,3.54806 4.3153,1.14564 3.0718,-8.29998 2.7569,-10.69181 -0.1217,-0.93134 0.1217,-2.30453 -0.5344,-3.06123 -1.2568,-1.44198 -5.7521,-0.64294 -7.5142,-0.64294 -7.0564,0 -14.1102,0.0344 -21.1667,0 -1.8626,-0.008 -6.6542,-1.3044 -8.0063,0.34925 -0.6085,0.74612 -0.5265,2.18017 0.4075,2.62996 0.844,0.40481 1.9341,0.11906 2.8363,0.33602 2.3204,0.56356 3.1777,2.72785 3.3946,4.88685 0.5715,5.70707 0.045,11.72634 0.045,17.4625 0,5.19113 0.5424,10.720919 -0.077,15.875003 -0.2487,2.092854 -0.852,4.106333 -3.0983,4.815417 -1.0319,0.325437 -2.4209,0.06085 -3.3258,0.738187 -0.8387,0.629708 -0.7594,2.296583 0.2249,2.754313 2.2304,1.037166 6.7257,0.15875 9.1863,0.15875 h 19.3146 c 2.5532,0 6.3315,0.682625 8.7022,-0.41275 2.2013,-1.018646 2.1299,-7.236355 2.4765,-9.376834 0.1402,-0.875771 0.418,-2.034646 -0.074,-2.852208 -0.7753,-1.285875 -3.0507,-1.415521 -3.9635,-0.248709 -1.6325,2.087563 -1.4393,5.214938 -3.2597,7.323667 -2.7728,3.209396 -8.2973,2.346854 -12.0808,2.156354 -1.5849,-0.07937 -3.1486,0.137584 -4.49,-0.933979 -1.8124,-1.449916 -1.5981,-3.624792 -1.5981,-5.709708 v -13.493753 m 399.5209,-9.525 c -1.0981,6.37911 0.074,13.85888 0,20.372919 -0.04,3.426355 -0.3175,7.106709 1.7965,10.054167 2.8443,3.96875 8.083,4.384146 12.491,3.262313 1.2303,-0.312208 4.2068,-1.230313 4.3576,-2.743729 0.1165,-1.166813 -0.9366,-1.849438 -1.9764,-1.693334 -3.1644,0.478896 -7.239,2.399771 -8.9614,-1.735666 -1.1113,-2.669646 -0.5636,-6.164792 -0.5636,-8.995834 v -18.256246 c 2.585,0 6.1992,0.6641 8.673,-0.0847 1.196,-0.36248 1.4949,-2.64319 0.4737,-3.34698 -0.9208,-0.635 -2.5744,-0.20373 -3.5904,-0.0847 -2.0532,0.24341 -4.2836,0.33602 -6.35,0.34131 0.4841,-2.61144 0.7514,-5.81025 0.5133,-8.46138 -0.1165,-1.30704 -1.3891,-1.98437 -2.5718,-1.28058 -1.8838,1.12183 -2.241,5.1144 -3.8126,6.82096 -1.3335,1.44992 -6.6702,2.51354 -6.2045,4.75721 0.3704,1.778 4.3788,1.07421 5.7256,1.07421 m -248.4438,-6.61459 4.5138,11.1125 3.4237,9.26042 H 1267.67 l 4.916,-12.17083 3.5507,-8.20209 m 424.3917,0 2.8045,6.61459 5.3975,13.75833 h -16.6687 l 5.5959,-13.75833 2.8708,-6.61459 m -70.6438,25.400002 c -1.7304,0.418042 -3.5031,0.497417 -5.0244,1.547813 -2.8125,1.944687 -3.9688,6.768042 -1.7516,9.559396 3.6566,4.60375 13.4779,3.145896 18.6823,3.434292 2.7411,0.153458 5.9875,0.605896 7.7893,2.931583 2.0823,2.682875 0.4683,6.648979 -1.9711,8.474604 -3.5799,2.677584 -9.5118,2.958042 -13.7557,2.098146 -3.2385,-0.656166 -6.5882,-2.516187 -6.1278,-6.35 0.2249,-1.878542 3.1433,-3.974042 1.0504,-5.521854 -5.5721,-4.116917 -10.4669,3.701521 -8.5566,8.696854 1.8441,4.818063 7.8899,6.342063 12.5756,6.35 8.8795,0.01588 23.0214,-0.11377 24.6777,-11.641667 0.2196,-1.524 0.1164,-3.01625 -0.3492,-4.497916 -2.5347,-8.016876 -16.2084,-6.879167 -22.741,-6.879167 -2.2542,0 -8.2867,0.256646 -7.8052,-3.439584 0.5795,-4.458229 9.3292,-2.995083 12.3032,-3.198812 7.5221,-0.518584 14.7796,-6.05367 13.4064,-14.26369 -0.3651,-2.18546 -1.6907,-3.98462 -2.8231,-5.82083 1.9817,0 5.8658,0.84667 7.6147,0.0661 1.3679,-0.60854 1.6431,-3.77296 0.2831,-4.50586 -0.9551,-0.51593 -2.413,0.0688 -3.3999,0.2593 -2.4368,0.46831 -5.1885,1.34937 -7.6729,1.3626 -3.7015,0.0185 -7.1782,-1.75154 -11.1125,-1.37054 -8.4773,0.82021 -17.1027,8.86619 -11.7793,17.6821 1.5161,2.513545 4.064,3.614211 6.4876,5.027086 m -144.7271,-16.668746 c 0,-1.50548 0.6218,-4.84452 -0.6429,-5.92402 -0.7726,-0.65882 -1.9473,-0.22225 -2.7966,0.0291 -2.1088,0.62441 -4.1752,1.31233 -6.35,1.68275 -0.9869,0.16668 -2.3363,0.18785 -2.9687,1.09802 -0.5344,0.76993 -0.209,1.71714 0.6218,2.08491 1.1721,0.51594 2.5056,0.0794 3.5825,0.94986 2.5029,2.02141 1.4102,7.82108 1.4102,10.66271 0,4.415891 1.2065,10.924642 -0.3334,15.081246 -0.8123,2.185458 -6.1145,2.111375 -5.4874,4.217458 0.4365,1.463146 2.5479,1.074209 3.7041,1.074209 h 10.8479 c 1.1113,0 3.5349,0.463021 4.072,-0.833438 0.9948,-2.389187 -4.789,-2.217208 -5.5086,-4.722812 -0.7832,-2.727855 -0.1509,-6.429376 -0.1509,-9.260417 0,-3.635376 -0.9154,-8.699496 0.172,-12.170836 1.2118,-3.86027 6.5141,-5.72029 10.1468,-5.54566 9.4245,0.45508 7.1437,13.54931 7.1437,19.833162 0,2.378605 0.471,5.421313 -0.4577,7.672917 -0.8863,2.151063 -5.7653,1.582209 -5.4266,3.704167 0.2752,1.717146 2.5136,1.322917 3.7677,1.322917 h 10.8479 c 1.0239,0 3.0136,0.373062 3.81,-0.423334 0.5768,-0.579437 0.4948,-1.756833 -0.1905,-2.214562 -0.8493,-0.568854 -2.1431,-0.232834 -3.0903,-0.687917 -2.712,-1.30175 -2.1167,-4.505854 -2.1167,-6.992938 0,-8.519582 2.8866,-23.899812 -8.4667,-26.281062 -1.1853,-0.24871 -2.4923,-0.48683 -3.7041,-0.41804 -1.8019,0.10319 -3.6169,0.35454 -5.2917,1.03716 -2.8575,1.16682 -4.6884,3.29671 -7.1438,5.02444 m 75.1417,-6.21241 c -2.6776,0.51858 -5.2255,1.57162 -7.9375,2.04522 -0.9366,0.16405 -2.3442,0.2593 -2.7464,1.29117 -0.9683,2.4765 3.6539,1.96321 4.7519,3.19617 1.3203,1.48166 0.9049,3.94229 0.9049,5.76527 v 12.964582 c 0,1.997605 0.3625,4.407959 -0.1481,6.350001 -0.7144,2.719916 -6.1199,2.156354 -5.5828,4.484687 0.3625,1.574271 2.9554,1.071563 4.1434,1.071563 4.0323,0 9.8849,1.092729 13.724,-0.113771 1.0292,-0.325438 1.344,-1.862667 0.4286,-2.524125 -1.3706,-0.986896 -3.2279,-0.02117 -4.4926,-1.624542 -1.4209,-1.801812 -0.9287,-4.979458 -0.9287,-7.114646 v -17.197909 c 0,-2.07698 1.2118,-9.2366 -2.1167,-8.59367 m 25.4,6.21242 c 0.3043,-1.46579 0.9737,-5.46365 -0.8308,-6.18596 -1.5637,-0.62706 -4.4926,0.97367 -6.0484,1.38377 -1.4181,0.37306 -5.6118,0.37571 -5.9425,2.18281 -0.3995,2.18546 2.9527,1.6219 4.0852,2.31775 1.4922,0.91546 1.5954,2.43153 1.7806,4.0058 0.471,3.96081 0.077,8.18356 0.077,12.170829 0,3.100917 0.3731,6.482292 -0.3148,9.525001 -0.6033,2.667 -6.5696,2.293937 -5.5298,4.701645 0.5582,1.296459 2.8707,0.854605 3.9925,0.854605 h 10.5834 c 1.0239,0 3.0136,0.373062 3.81,-0.423334 0.5768,-0.579437 0.4947,-1.756833 -0.1905,-2.214562 -1.8283,-1.222375 -4.2096,0.0344 -5.0562,-2.918354 -0.7594,-2.653771 -0.1508,-6.244167 -0.1508,-8.995834 0,-3.717396 -0.9314,-8.876766 0.1349,-12.435416 0.9525,-3.16706 5.3075,-5.20965 8.3317,-5.51127 10.758,-1.07686 8.9959,11.78189 8.9959,18.740436 0,2.696104 0.3968,5.860521 -0.4366,8.466667 -0.7646,2.389187 -5.8632,1.918229 -5.506,3.96875 0.299,1.709208 2.5744,1.322917 3.8259,1.322917 h 10.8479 c 1.0134,0 2.9925,0.373062 3.773,-0.423334 0.5688,-0.584729 0.545,-1.74625 -0.1535,-2.214562 -0.9101,-0.608542 -2.3151,-0.214313 -3.3311,-0.709084 -2.4924,-1.214437 -1.8759,-4.714875 -1.8759,-6.971771 0,-9.800169 2.7041,-26.537709 -11.6416,-26.717629 -1.7145,-0.0212 -3.6751,0.23284 -5.2917,0.81228 -3.1512,1.12977 -5.1858,3.54541 -7.9375,5.26785 m 201.0833,-6.21242 c -2.6008,0.53446 -5.0244,1.60073 -7.6729,2.04523 -0.979,0.16404 -2.323,0.20902 -2.749,1.28588 -0.9949,2.50296 3.8629,1.98173 4.945,3.43958 1.2489,1.6854 0.7144,4.61169 0.7144,6.58548 v 12.170833 c 0,1.918229 0.3413,4.225396 -0.1905,6.085417 -0.7646,2.664354 -5.842,2.06375 -5.6515,4.230687 0.1561,1.791229 2.7702,1.325563 3.9899,1.325563 h 9.7896 c 1.2224,0 3.0559,0.338666 4.1937,-0.15875 0.9392,-0.410105 1.0821,-1.902355 0.2196,-2.479146 -1.4791,-0.992188 -3.2465,-0.105834 -4.4927,-1.870604 -1.2964,-1.838855 -0.7143,-5.000626 -0.7143,-7.133167 v -17.462503 c 0,-2.2225 1.2382,-8.80798 -2.3813,-8.0645 m 65.3521,6.477 c 0,-1.42875 0.6906,-5.44512 -0.6429,-6.34206 -0.7753,-0.51858 -2.0003,-0.0529 -2.7967,0.18256 -2.3812,0.70644 -4.6937,1.41817 -7.1437,1.86002 -0.9129,0.16405 -2.0611,0.31486 -2.286,1.4023 -0.426,2.06375 2.1537,1.67481 3.3443,2.05052 1.4869,0.47095 2.2833,1.7145 2.3707,3.22791 0.2672,4.64079 0.011,9.37419 0.011,14.022919 0,2.704042 0.4233,5.81025 -0.09,8.466667 -0.5848,3.024188 -2.8258,2.161646 -4.8975,3.069167 -0.7197,0.3175 -0.9657,1.211792 -0.672,1.918229 0.5371,1.296459 2.9607,0.833438 4.0719,0.833438 h 10.5833 c 1.0187,0 2.966,0.359833 3.7413,-0.460375 0.6111,-0.64823 0.4312,-1.862667 -0.3758,-2.25425 -1.8388,-0.889 -3.9978,0 -4.8048,-2.577042 -0.9393,-3.000375 -0.4127,-6.683375 -0.4127,-9.789584 0,-3.463399 -0.9711,-8.649229 0.2354,-11.906249 1.2118,-3.27025 5.4954,-5.3049 8.7604,-5.53244 10.6151,-0.74083 8.4667,12.18142 8.4667,19.026189 0,2.423584 0.6376,5.921375 -0.2355,8.202084 -0.9023,2.354792 -6.0246,1.907646 -5.4954,4.217458 0.3492,1.529292 2.7252,1.074209 3.8788,1.074209 h 10.8479 c 1.0874,0 2.9977,0.359833 3.7677,-0.613834 0.5238,-0.661458 0.3836,-1.719791 -0.4022,-2.100791 -0.8467,-0.410105 -1.9368,-0.195792 -2.8363,-0.529167 -2.0532,-0.764646 -2.331,-3.026833 -2.3786,-4.958292 -0.1112,-4.579937 0,-9.17575 0,-13.758336 0,-2.66435 0.2381,-5.38427 -0.6747,-7.9375 -4.0667,-11.37973 -17.6715,-7.00352 -23.9316,-0.79375 m -677.5979,-6.23887 c -7.1623,0.93398 -13.7001,4.71752 -16.3857,11.79512 -4.4344,11.676065 2.1723,25.886836 15.5919,25.92917 2.077,0.0053 4.1566,-0.399521 6.0855,-1.177396 2.7569,-1.113896 5.3922,-2.862792 7.2866,-5.172604 0.672,-0.822855 1.9076,-2.238376 0.9816,-3.304646 -1.6193,-1.865313 -5.2546,3.376083 -6.6807,4.235979 -4.4503,2.680229 -10.0357,1.526646 -13.1657,-2.518834 -5.8843,-7.604125 -4.8842,-29.016849 8.6677,-26.635599 2.6961,0.4736 5.3076,3.14325 4.1566,5.9981 -0.4339,1.07685 -1.9261,2.01877 -2.0081,3.16442 -0.1403,1.94998 3.2279,2.17487 4.4661,1.91029 4.4159,-0.94192 5.4187,-7.06438 3.0057,-10.36373 -2.3495,-3.2094 -8.2603,-4.34446 -12.0015,-3.86027 m 37.0417,0.003 c -7.6783,1.04246 -14.2717,6.01398 -16.4624,13.64456 -3.5005,12.197292 6.1886,25.619605 19.3728,24.000355 8.6122,-1.055688 15.7824,-8.167688 16.6237,-16.856605 1.0531,-10.8876 -7.7814,-22.38904 -19.5341,-20.78831 m 113.2417,-0.003 c -4.7229,0.61648 -9.2472,2.10608 -12.5863,5.73352 -10.2473,11.12573 -4.691,31.937853 11.7925,31.99077 2.3072,0.0079 4.5006,-0.523875 6.6146,-1.436688 2.6776,-1.153583 4.9398,-2.987146 6.8368,-5.177896 0.7805,-0.902229 1.8891,-2.283354 0.5318,-3.2385 -1.5478,-1.092729 -2.786,1.259417 -3.675,2.180167 -2.3072,2.386542 -5.0933,3.767667 -8.4561,3.698875 -12.1259,-0.240771 -12.962,-19.256378 -8.1307,-26.982208 2.548,-4.07194 12.0465,-6.02985 13.6367,0 0.59,2.22779 -2.7782,4.826 -1.8548,6.29444 1.0134,1.60866 3.8365,1.49754 5.3446,0.8255 3.8153,-1.69863 4.0376,-7.69938 1.5002,-10.53571 -2.4712,-2.76225 -8.0116,-3.81265 -11.5543,-3.35227 m 37.5708,0 c -5.9135,0.76994 -11.3004,3.14854 -14.6712,8.35554 -7.6967,11.887728 -0.889,29.416375 14.142,29.36875 2.204,-0.0079 4.3312,-0.566209 6.35,-1.436688 2.7093,-1.169458 4.8789,-3.013604 6.8554,-5.177896 0.6932,-0.759354 1.7674,-2.016125 0.8837,-3.040062 -1.7225,-1.992313 -5.2679,3.323166 -6.6807,4.214812 -4.2122,2.653771 -10.0172,1.629834 -13.0916,-2.233083 -6.0987,-7.659688 -5.1356,-29.313183 8.5936,-26.900183 2.6776,0.47095 5.1091,3.22262 4.0826,5.9981 -0.4075,1.10331 -1.8442,2.01612 -1.9553,3.16442 -0.1826,1.84943 3.0348,2.14048 4.2227,1.91293 4.6593,-0.89429 5.7574,-7.22312 3.0348,-10.62302 -2.3865,-2.97656 -8.1492,-4.07193 -11.766,-3.60362 m 37.0416,0.003 c -7.7946,1.05568 -14.2292,5.93196 -16.5179,13.64456 -3.6354,12.247563 6.2971,25.614313 19.4284,24.000355 8.9535,-1.098021 16.0311,-8.688917 16.6449,-17.650355 0.725,-10.58333 -8.2867,-21.5265 -19.5554,-19.99456 m 423.0688,31.371644 c 1.4446,3.767666 3.7782,6.514041 8.2021,6.339416 1.1694,-0.04498 3.6353,-0.227541 4.0454,-1.600729 0.4922,-1.656292 -2.106,-1.545167 -2.9765,-2.0955 -1.2303,-0.777875 -1.8415,-2.312458 -2.0479,-3.701521 -0.8123,-5.500687 -0.079,-11.63637 -0.079,-17.19792 0,-3.47927 -0.1905,-7.23106 -2.9157,-9.76312 -4.2863,-3.98198 -13.0122,-4.2889 -18.251,-2.39448 -2.6352,0.95514 -5.1144,2.36537 -5.8473,5.27844 -0.9657,3.84175 3.1036,10.71562 7.3899,6.76539 1.4075,-1.29646 -0.7832,-2.63525 -1.2753,-3.85498 -0.6456,-1.59808 -0.053,-3.54541 1.0848,-4.75191 3.0241,-3.20411 9.1863,-2.70934 11.5781,1.04775 1.5425,2.42623 1.7727,6.99029 1.3177,9.78429 -0.344,2.12196 -6.3792,1.64306 -8.1624,1.84414 -6.6279,0.74348 -15.4596,2.989796 -15.0257,11.390317 0.5847,11.313583 18.7907,12.398375 22.9632,2.910417 m 82.2854,-31.374294 c -10.0648,1.30969 -17.3144,8.59367 -17.7165,18.93888 -0.4789,12.313705 10.9326,22.484289 23.0081,17.608018 2.8046,-1.135063 5.3526,-2.881313 7.3316,-5.172604 0.7038,-0.814917 1.9474,-2.225146 0.9764,-3.304646 -1.6696,-1.849438 -5.2335,3.405187 -6.7205,4.270375 -4.4847,2.608791 -9.9245,1.471083 -13.0915,-2.55323 -5.9373,-7.545916 -4.9107,-29.003623 8.5936,-26.635603 2.7385,0.47889 5.3314,3.08769 4.1937,5.9981 -0.4154,1.06363 -1.6405,1.80446 -1.8786,2.91042 -0.3995,1.86796 2.7755,2.47915 4.0349,2.2569 4.49,-0.79375 5.9082,-7.07761 3.3285,-10.45898 -2.4263,-3.1803 -8.2709,-4.34975 -12.0597,-3.85763 m 28.0458,17.88054 h 17.1979 c 2.0849,0 5.2017,0.12436 6.6543,-1.67481 2.3177,-2.87867 -0.2646,-8.89 -2.2437,-11.28977 -4.5826,-5.55625 -13.8536,-6.3791 -20.021,-3.09033 -15.4834,8.25764 -11.6126,35.435643 7.1438,35.896018 5.2652,0.127 9.9668,-1.232959 13.7583,-5.024438 1.0451,-1.04775 3.4237,-3.233208 2.3336,-4.92125 -0.5186,-0.804333 -1.5161,-0.849312 -2.1987,-0.251354 -2.6617,2.333625 -3.7676,5.013854 -7.5432,5.902854 -10.0965,2.378604 -15.0813,-6.855354 -15.0813,-15.54692 m -478.6312,13.758337 c 0,1.309687 -0.598,4.587875 0.2725,5.61975 0.59,0.703792 2.3574,0.206375 3.1671,0.201083 2.5664,-0.01323 5.1117,-0.494771 7.6729,-0.529166 0.9975,-0.01323 2.4791,0.137583 3.2094,-0.714375 0.5318,-0.624417 0.3307,-1.672167 -0.4048,-2.037292 -1.1325,-0.563563 -2.6591,-0.322792 -3.863,-0.814917 -3.3813,-1.389062 -2.9104,-4.79425 -2.9104,-7.8105 v -17.19787 c 0,-1.96056 0.6403,-5.29167 -0.1958,-7.0829 -0.4471,-0.95514 -1.5875,-0.86783 -2.45,-0.65352 -2.6697,0.66146 -5.2176,1.5584 -7.9375,2.06904 -0.9366,0.17463 -2.1114,0.35455 -2.3998,1.44463 -0.5635,2.1299 4.5985,1.85473 5.4266,3.96081 1.024,2.61144 0.4128,6.23094 0.4128,8.99319 0,3.180291 0.7779,7.537979 -0.135,10.583333 -1.2329,4.101042 -6.7204,5.728229 -10.4484,5.545667 -5.0217,-0.246063 -6.8791,-4.643438 -6.8791,-8.985251 v -16.139579 c 0,-1.92088 0.6032,-5.07471 -0.1958,-6.83948 -0.4445,-0.98161 -1.5769,-0.85196 -2.4501,-0.63236 -2.3151,0.57944 -4.5243,1.39436 -6.8791,1.86267 -0.9631,0.1905 -2.3363,0.19844 -3.0507,0.96044 -0.5979,0.64029 -0.5424,1.70127 0.2196,2.18281 0.8308,0.52652 1.9341,0.24077 2.8311,0.58473 2.2886,0.88106 2.3812,3.24644 2.3812,5.32077 0,8.186208 -2.8628,23.143104 7.9375,25.74925 1.4685,0.354541 2.9898,0.500062 4.4979,0.433916 1.8601,-0.08202 3.8286,-0.526521 5.5563,-1.211791 2.6247,-1.037167 4.4212,-3.193521 6.6146,-4.863042 m 182.2979,-29.289373 c 10.7579,-1.13771 12.2634,18.21656 2.1166,19.452164 -11.6072,1.410229 -13.3455,-18.264184 -2.1166,-19.452164 m -235.7438,0.63764 c 4.4794,0.0661 7.501,2.79665 8.9006,6.9559 2.6988,8.01687 2.2331,25.013708 -9.4297,24.865541 -4.6302,-0.05821 -7.448,-3.243791 -8.8186,-7.403042 -2.6035,-7.90575 -2.0743,-24.587729 9.3477,-24.418399 m 532.0771,11.7184 c 0.056,-6.58813 6.387,-15.99671 13.7583,-10.67858 2.4395,1.75948 5.2758,7.97983 1.8283,10.1256 -1.4023,0.87313 -3.429,0.55298 -5.0033,0.55298 h -10.5833 m -722.3118,-11.55435 c 12.3375,-2.14842 13.6287,12.97252 12.0597,21.608516 -0.7699,4.225396 -2.9342,8.884709 -7.5618,9.765771 -12.5121,2.378604 -13.8853,-14.110229 -11.7395,-22.730357 0.9498,-3.82323 2.9421,-7.89516 7.2416,-8.64393 m 611.9813,15.5231 c 2.0161,6.818312 -4.453,18.515541 -12.6947,14.168437 -3.3761,-1.780646 -2.5903,-7.749646 -0.4339,-10.154709 1.3467,-1.500187 3.3178,-2.124604 5.1911,-2.680229 2.6035,-0.772583 5.2917,-0.841375 7.9375,-1.333499 z"
       id="path2179"
       inkscape:export-filename="logo title.svg"
       inkscape:export-xdpi="350"
       inkscape:export-ydpi="350" /></g></svg>
