<?xml version="1.0" encoding="UTF-8" standalone="no"?>
<!-- Created with Inkscape (http://www.inkscape.org/) -->

<svg
   width="1104.1855mm"
   height="106.39049mm"
   viewBox="0 0 1104.1855 106.39049"
   version="1.1"
   id="svg1778"
   xml:space="preserve"
   xmlns:inkscape="http://www.inkscape.org/namespaces/inkscape"
   xmlns:sodipodi="http://sodipodi.sourceforge.net/DTD/sodipodi-0.dtd"
   xmlns="http://www.w3.org/2000/svg"
   xmlns:svg="http://www.w3.org/2000/svg"><sodipodi:namedview
     id="namedview1780"
     pagecolor="#505050"
     bordercolor="#eeeeee"
     borderopacity="1"
     inkscape:showpageshadow="0"
     inkscape:pageopacity="0"
     inkscape:pagecheckerboard="0"
     inkscape:deskcolor="#505050"
     inkscape:document-units="mm"
     showgrid="false" /><defs
     id="defs1775" /><g
     inkscape:label="Layer 1"
     inkscape:groupmode="layer"
     id="layer1"
     transform="translate(-703.50886,-147.89693)"><path
       style="fill:#ffdd5a;stroke:none;stroke-width:1"
       d="m 1132.2139,148.09838 c -7.5618,1.36102 -11.9697,10.07984 -7.8131,16.81031 2.5982,4.20899 7.8237,6.02403 12.5756,5.16863 7.9931,-1.43854 11.9909,-10.94475 7.1993,-17.60379 -2.6352,-3.66209 -7.6253,-5.15567 -11.9618,-4.37515 m 570.4416,-2.6e-4 c -7.7576,1.37081 -12.2184,10.21292 -7.792,17.07515 2.5744,3.98992 7.7206,5.68775 12.2899,4.94109 7.4639,-1.21999 11.856,-9.89144 8.0619,-16.58276 -2.458,-4.33784 -7.7655,-6.28068 -12.5598,-5.43348 m -677.0687,8.87307 v 5.82083 l 10.5834,1.32292 v 51.85833 c 0,6.09574 -0.1112,12.17904 -0.262,18.25625 -0.069,2.8284 0.4101,5.93434 -0.042,8.72622 -0.4709,2.90063 -6.2283,1.38377 -8.0036,2.91227 -1.0795,0.93081 -0.4234,4.74716 -0.4234,6.08859 h 35.7188 c 0,-1.43589 0.6191,-4.75932 -0.2725,-5.92957 -0.9975,-1.3089 -6.0722,-1.67482 -7.665,-1.74334 0,-23.34763 -0.2646,-46.74473 -0.2646,-70.11459 0,-5.35411 -0.2857,-11.09107 0.3413,-16.40416 0.172,-1.4605 0.9155,-5.23584 -0.426,-6.2529 -1.9738,-1.49701 -5.7123,0.23839 -7.8528,0.69665 -7.0935,1.51923 -14.2372,3.83354 -21.4312,4.7625 m 273.0499,0 v 5.82083 l 11.1125,1.32292 v 25.13541 c -3.6459,-3.18373 -7.6252,-5.72267 -12.4354,-6.66644 -3.7518,-0.73607 -7.8846,-0.77179 -11.6416,-0.0508 -19.9972,3.8354 -25.7308,25.71856 -23.8575,43.22974 0.807,7.52608 3.384,15.38526 8.7868,20.89812 4.2307,4.31668 9.7234,6.41747 15.5998,7.25911 3.0427,0.4355 6.2707,0.17118 9.2604,-0.48816 5.6806,-1.25254 10.2156,-4.28202 14.2875,-8.35448 l 1.0584,8.20208 25.6646,-1.32292 c 0,-1.43589 0.6191,-4.75932 -0.2726,-5.92957 -1.0292,-1.35255 -6.2865,-1.6727 -7.9295,-1.74334 V 174.1691 c 0,-5.6515 0.3863,-11.29241 0.5265,-16.93333 0.034,-1.41314 0.6085,-4.77599 -0.6112,-5.7449 -1.8997,-1.50918 -5.7653,0.27067 -7.8528,0.71782 -7.1782,1.53723 -14.4172,3.82243 -21.6959,4.7625 m -532.07701,78.31666 -5.02708,-2.64583 c -6.58548,11.55806 -22.4237,14.22347 -31.72619,4.23307 -4.31218,-4.63127 -5.84067,-11.82635 -5.84464,-17.9914 h 22.225 15.08125 c 1.37292,0 4.53839,0.58711 5.66499,-0.27199 1.50363,-1.14618 0.94959,-5.73035 0.94959,-7.40093 0,-7.86474 -2.52783,-15.79642 -8.20235,-21.43019 -13.15164,-13.05745 -38.11587,-9.02706 -48.6791,5.29061 -3.71422,5.03396 -6.07959,10.75478 -6.99452,16.93333 -1.04166,7.03395 -0.48101,14.72539 1.9775,21.43125 2.3233,6.33677 6.38042,11.9888 12.15681,15.59322 16.17821,10.09491 42.07245,5.72955 48.41874,-13.74114 m 75.67083,-2.64583 c -1.91717,2.8411 -4.04362,5.56577 -6.87916,7.5565 -8.83894,6.20527 -21.37225,2.06401 -26.6028,-6.76275 -2.05978,-3.47583 -2.91465,-7.67874 -3.33904,-11.64167 -1.22026,-11.39772 1.075,-27.37908 13.53767,-31.8299 3.36762,-1.20253 6.34921,-0.8935 9.78958,-0.44926 0,4.42436 -0.2667,10.59841 1.99284,14.55208 2.84163,4.97179 11.11436,6.27221 14.83731,1.58644 3.4208,-4.30556 0.9607,-10.46983 -2.01745,-14.28644 -6.13383,-7.86051 -17.76359,-10.31928 -27.24811,-9.18475 -10.37431,1.24064 -20.0959,6.28941 -25.81381,15.27017 -8.67066,13.6181 -8.19467,35.79415 3.61236,47.60145 4.57702,4.57676 10.6037,7.23847 16.90978,8.37803 9.61073,1.73646 20.48695,0.33496 28.31042,-5.88486 2.90988,-2.31352 5.1898,-5.39327 6.6114,-8.81962 0.35904,-0.86493 1.22688,-2.37993 0.8771,-3.3364 -0.45561,-1.24645 -3.40122,-2.37649 -4.57809,-2.74902 m 61.9125,12.7 c 5.25727,12.54284 26.30487,9.81128 30.1625,-2.38125 l -3.96875,-2.38125 c -1.85738,2.6371 -6.01927,5.72664 -7.71525,1.05833 -1.37054,-3.77401 -0.48684,-8.99504 -0.48684,-12.96458 0,-11.09292 1.651,-23.76858 -2.14047,-34.39583 -5.35517,-15.00955 -28.30248,-14.85027 -40.45744,-8.92731 -3.19617,1.55734 -6.26004,3.73512 -8.46402,6.54606 -3.71475,4.74133 -5.89492,12.48304 1.05569,15.63581 0.97896,0.44424 2.09814,0.73158 3.175,0.75407 7.47448,0.1561 9.57527,-6.62014 10.47221,-12.68572 0.23547,-1.58961 0.0741,-4.38732 0.9525,-5.74066 0.66675,-1.02817 2.33627,-0.87233 3.39195,-0.87392 3.25173,-0.005 6.74688,0.37491 9.18104,2.76225 3.37609,3.31073 3.78355,8.91381 3.78355,13.37733 0,1.1819 0.42333,3.41525 -0.42334,4.36219 -0.71437,0.79507 -2.29923,0.95012 -3.28083,1.23137 -2.64583,0.75856 -5.32342,1.48087 -7.9375,2.34421 -8.84767,2.92285 -19.91254,6.93129 -24.63271,15.61015 -3.63537,6.68761 -2.45533,16.41131 3.46604,21.345 3.20146,2.66805 7.55915,3.75179 11.64167,4.03145 9.18104,0.62865 15.22942,-3.39672 22.225,-8.7077 m 64.55833,-56.09167 c 3.28083,-0.25902 6.6331,-0.59266 9.78958,0.65194 5.15409,2.03279 6.59077,8.08037 6.61459,13.1064 0.008,1.57136 0.66939,5.24695 -0.42334,6.47964 -0.72496,0.81651 -2.28071,0.98319 -3.28083,1.27027 -2.4765,0.71173 -4.96358,1.40176 -7.40833,2.21615 -9.15723,3.04985 -21.41802,7.10115 -25.55082,16.75685 -2.7252,6.36614 -1.9685,15.36965 3.5904,20.02208 4.38679,3.67242 10.8294,4.80748 16.40417,4.27461 7.63587,-0.72972 11.81364,-4.82203 17.99166,-8.68627 1.21444,4.12856 5.59329,6.59977 9.525,7.50067 8.15177,1.86823 17.83027,-1.0586 20.37287,-9.88192 -0.8916,-0.64082 -2.5109,-2.3913 -3.7041,-2.0357 -2.54,0.75776 -5.1515,6.14785 -7.6729,1.23798 -1.6246,-3.16256 -0.5292,-8.92863 -0.5292,-12.43145 0,-9.56574 0.5636,-19.35612 -0.7594,-28.83958 -0.8466,-6.06954 -3.122,-12.14279 -8.50102,-15.5866 -4.10898,-2.63049 -9.52764,-3.19882 -14.2875,-3.19882 -7.94014,0 -15.98348,0.67257 -22.75416,5.29934 -5.26786,3.59913 -12.52009,12.89341 -6.06161,18.69149 4.16984,3.74386 10.76325,2.31643 13.61017,-2.29499 2.38125,-3.85445 2.84427,-10.09836 3.03477,-14.55209 m 156.10415,8.46667 0.2646,46.56667 c -1.6695,0.0717 -7.1517,0.37412 -8.1942,1.74334 -0.8916,1.17025 -0.2725,4.49394 -0.2725,5.92957 h 35.9834 c 0,-1.43589 0.6191,-4.75932 -0.2726,-5.92957 -1.008,-1.32371 -6.0536,-1.61502 -7.6649,-1.74334 -0.9473,-7.50332 -0.2646,-15.45326 -0.2646,-23.01875 0,-7.56894 -0.6721,-15.4866 0.045,-23.01875 0.3677,-3.86239 0.2011,-7.7597 0.2196,-11.64167 0.01,-1.56871 0.6191,-3.18241 -1.0637,-4.08093 -2.0928,-1.11787 -6.3711,1.26709 -8.4613,1.96426 l -13.4938,4.49792 c -1.5663,0.52202 -4.4714,0.90461 -5.6621,2.07513 -0.6403,0.63076 -0.4233,1.87431 -0.4233,2.68737 0,0.71332 -0.2037,1.8841 0.2725,2.48629 0.463,0.58658 1.6987,0.52043 2.3733,0.61701 2.1908,0.31326 4.4106,0.69135 6.6146,0.86545 m 50.5354,0 0.2646,46.56667 c -1.6907,0.0728 -7.1305,0.34739 -8.1941,1.74334 -0.8917,1.17025 -0.2725,4.49368 -0.2725,5.92957 h 35.9833 c 0,-1.33905 0.6535,-5.11968 -0.4233,-6.04837 -1.741,-1.49913 -7.2814,-0.13282 -7.7391,-2.95249 -0.5027,-3.0988 -0.04,-6.64368 -0.04,-9.78455 v -19.84375 c 0,-3.03239 -1.0874,-8.6577 0.2725,-11.37709 0.7726,-1.54807 2.6194,-2.7125 3.9608,-3.73486 4.1778,-3.18531 11.901,-7.39563 16.6582,-2.85194 2.8654,2.73791 3.1829,7.8822 3.1856,11.61389 v 25.13541 c 0,3.07843 1.0636,8.51959 -0.1588,11.33819 -1.0186,2.34474 -6.3764,0.9525 -8.1491,2.42359 -1.0769,0.8964 -0.4234,4.76488 -0.4234,6.08197 h 35.9834 c 0,-1.43589 0.6191,-4.75932 -0.2726,-5.92957 -1.0186,-1.33694 -6.0483,-1.67376 -7.6649,-1.74334 0,-10.0502 -0.2646,-20.09775 -0.2646,-30.1625 0,-6.67491 0.6217,-13.71283 -1.7039,-20.10834 -4.3815,-12.06262 -20.5661,-15.37308 -31.1045,-9.14082 -4.2333,2.50349 -7.4109,5.96847 -10.8479,9.40541 -0.024,-2.79347 -0.3889,-5.69304 -0.717,-8.46667 -0.1482,-1.23719 0.026,-2.35797 -1.1509,-3.13558 -2.1405,-1.41472 -6.5696,1.16285 -8.7154,1.96506 -4.0296,1.50654 -8.0989,2.95752 -12.1708,4.34631 -1.5082,0.51409 -4.2519,0.98849 -5.3975,2.11455 -0.6377,0.62733 -0.4234,1.8378 -0.4234,2.64716 0,0.70141 -0.2037,1.86055 0.2725,2.44951 0.4842,0.59875 1.6802,0.51382 2.3734,0.6141 2.278,0.3302 4.5852,0.72416 6.8791,0.90514 m 206.9042,-15.49797 c -9.5806,1.3044 -18.4812,5.74331 -24.2993,13.64589 -14.1209,19.17673 -6.4876,49.385 16.891,56.61395 5.4874,1.69677 11.5331,2.00025 17.1979,1.25518 5.0191,-0.65987 9.9298,-2.209 14.2875,-4.80774 17.4757,-10.41929 20.312,-36.26802 9.2048,-52.26764 -7.2416,-10.43491 -20.6878,-16.15414 -33.2819,-14.43964 m 64.8229,15.49797 c 0,10.56402 0.2646,21.16508 0.2646,31.75 0,4.14099 1.0054,9.75677 -0.085,13.74299 -0.7038,2.57995 -6.4558,1.23587 -8.2233,2.70457 -1.0768,0.89482 -0.4233,4.72704 -0.4233,6.04202 h 35.9833 c 0,-1.43589 0.6192,-4.75932 -0.2725,-5.92957 -1.0186,-1.33694 -6.0484,-1.67376 -7.665,-1.74334 v -30.1625 -8.46667 c 0,-1.14062 -0.254,-2.65404 0.2726,-3.70417 0.7328,-1.4687 2.4315,-2.60905 3.6962,-3.59172 4.0481,-3.14325 11.4882,-7.3107 16.4041,-3.44778 3.7651,2.95989 3.7042,9.56866 3.7042,13.91867 0,11.82238 -0.021,23.65296 -0.2646,35.45417 -1.6483,0.0709 -7.1728,0.40269 -8.1941,1.74334 -0.8917,1.17025 -0.2725,4.49368 -0.2725,5.92957 h 35.9833 c 0,-1.43589 0.6191,-4.75932 -0.2725,-5.92957 -0.9816,-1.28958 -6.0907,-1.67482 -7.665,-1.74334 0,-9.85441 -0.2646,-19.75671 -0.2646,-29.63334 0,-6.86197 0.5689,-14.05519 -1.7727,-20.6375 -4.3894,-12.33249 -20.4179,-15.00954 -31.0356,-9.17786 -4.3074,2.36511 -7.4666,5.99069 -10.8479,9.44245 -0.217,-2.73606 -0.5795,-5.46391 -0.77,-8.20209 -0.098,-1.40996 0.024,-2.67626 -1.3599,-3.49117 -2.1246,-1.24963 -6.6067,1.31789 -8.7181,2.11746 -3.9343,1.49039 -7.9242,2.92497 -11.9062,4.28334 -1.4922,0.50932 -4.2651,0.96149 -5.3975,2.07592 -0.6403,0.63076 -0.4233,1.87431 -0.4233,2.68737 0,0.7022 -0.2038,1.85976 0.2725,2.44951 0.4762,0.58949 1.6854,0.56065 2.3733,0.65088 2.286,0.30056 4.5826,0.68712 6.8792,0.86836 m 148.9603,37.57083 -5.027,-2.64583 c -6.5855,11.55806 -22.4208,14.22982 -31.7262,4.23307 -4.3101,-4.63047 -5.8288,-11.83137 -5.8447,-17.9914 h 22.225 15.0813 c 1.3732,0 4.5376,0.58711 5.6647,-0.27199 1.5028,-1.14618 0.9499,-5.73035 0.9499,-7.40093 0,-8.16769 -2.7358,-16.22372 -8.7313,-21.9501 -13.3244,-12.7246 -37.5973,-8.02164 -48.1198,5.81052 -3.7517,4.93448 -6.1383,10.81325 -7.0246,16.93333 -1.0213,7.04876 -0.4868,14.71295 1.9764,21.43125 2.3204,6.32698 6.3923,11.99727 12.1576,15.59322 16.1819,10.09227 42.082,5.7322 48.4187,-13.74114 m 19.5792,-4.23333 v 11.64167 c 0,1.23322 -0.4418,3.53959 0.2725,4.6011 0.635,0.94642 2.1828,1.45971 3.1671,1.94786 3.0215,1.50151 6.2494,2.78765 9.525,3.60389 13.6366,3.39805 34.8985,1.07315 40.1955,-14.38619 2.3839,-6.96066 0.9842,-15.70593 -4.4873,-20.85684 -4.5085,-4.24524 -10.6522,-6.42778 -16.3936,-8.42089 -4.8895,-1.6973 -13.8536,-3.72428 -15.2056,-9.61602 -2.2014,-9.59141 12.9143,-13.1572 19.0923,-8.44391 0.8837,0.67469 0.8493,2.15133 1.0372,3.15225 0.5186,2.76833 1.3044,5.65176 1.4261,8.46666 h 10.8479 c 0,-3.67294 0.3016,-7.44564 0.553,-11.1125 0.079,-1.17819 0.7461,-3.26469 -0.032,-4.31297 -0.6509,-0.88133 -2.4553,-1.31445 -3.4316,-1.73276 -3.1353,-1.34223 -6.4215,-2.40241 -9.7896,-2.971 -13.0202,-2.19895 -32.4617,-0.0601 -36.0124,15.36673 -0.5398,2.33627 -0.6721,4.76674 -0.3467,7.14375 2.0638,15.16433 16.6741,17.72206 28.4216,23.10051 5.5166,2.52571 12.0147,8.40819 6.7918,14.73465 -3.8629,4.67915 -12.3322,4.48177 -17.6397,2.81887 -1.6087,-0.50377 -4.3604,-1.28826 -5.2441,-2.84639 -1.2356,-2.17673 -1.0345,-5.97879 -1.4367,-8.43889 -0.1455,-0.90064 -0.066,-2.56646 -0.8757,-3.16759 -0.7276,-0.53869 -2.1749,-0.27199 -3.0269,-0.27199 h -7.4083 m 79.6396,-33.3375 c 0,10.57275 0.2646,21.15979 0.2646,31.75 0,4.14099 1.0054,9.75677 -0.085,13.74299 -0.7038,2.57995 -6.4558,1.23613 -8.2232,2.70457 -1.0769,0.89482 -0.4234,4.72731 -0.4234,6.04202 h 35.9834 c 0,-1.43589 0.6191,-4.75932 -0.2726,-5.92957 -1.0186,-1.33694 -6.0483,-1.67376 -7.6649,-1.74334 v -46.83125 c 0,-3.63062 0.2645,-7.21889 0.2645,-10.84792 0,-1.57348 0.3599,-3.35201 -1.3282,-4.15872 -2.1272,-1.01679 -6.3606,1.34197 -8.4613,2.04205 -4.6805,1.56025 -9.3901,3.05515 -14.023,4.74848 -1.4684,0.53684 -3.9687,0.81941 -5.1329,1.88886 -0.6456,0.59505 -0.4233,1.83568 -0.4233,2.62308 0,0.70194 -0.2037,1.85976 0.2725,2.44951 0.4763,0.58949 1.6854,0.56065 2.3733,0.65088 2.2834,0.30056 4.5826,0.68712 6.8792,0.86836 m 64.8229,-8.46667 c 3.2808,-0.25902 6.6331,-0.59266 9.7896,0.65194 5.1541,2.03279 6.5908,8.08037 6.6146,13.1064 0.01,1.57136 0.6694,5.24695 -0.4234,6.47964 -0.7249,0.81624 -2.2807,0.98293 -3.2808,1.27027 -2.4765,0.71173 -4.9636,1.40176 -7.4083,2.21615 -9.1414,3.04403 -21.4524,7.10432 -25.5508,16.75685 -2.7094,6.37699 -1.9791,15.36012 3.5904,20.02208 4.3867,3.67242 10.8293,4.80748 16.4041,4.27461 7.6359,-0.72972 11.8137,-4.8223 17.9917,-8.68627 1.2144,4.12856 5.5933,6.5995 9.525,7.50067 8.1544,1.86849 17.8303,-1.05886 20.3729,-9.88192 -0.8916,-0.64056 -2.5109,-2.3913 -3.7042,-2.0357 -2.54,0.75776 -5.1514,6.14785 -7.6729,1.23798 -1.6245,-3.16256 -0.5292,-8.92863 -0.5292,-12.43145 0,-9.56548 0.5636,-19.35638 -0.7593,-28.83958 -0.8467,-6.06954 -3.1194,-12.14279 -8.5011,-15.5866 -4.1089,-2.63049 -9.5276,-3.19882 -14.2875,-3.19882 -7.9401,0 -15.9834,0.67257 -22.7541,5.29934 -5.2679,3.59913 -12.5201,12.89341 -6.0616,18.69149 4.1698,3.74386 10.7632,2.31643 13.6101,-2.29499 2.3813,-3.85445 2.8443,-10.09836 3.0348,-14.55209 M 724.22643,212.00452 c 8e-4,-6.69105 2.21483,-14.82037 7.14481,-19.56858 3.48297,-3.35466 9.63401,-4.90855 13.75701,-1.72271 4.78525,3.69756 7.90919,17.45166 0.79401,20.42637 -2.52148,1.05436 -5.52688,0.86492 -8.20208,0.86492 H 724.22643 M 1384.891,189.06223 c 7.0829,-0.9226 12.0438,4.19339 14.089,10.50687 3.3999,10.48809 3.4925,24.27764 0.688,34.925 -1.4103,5.35305 -4.4318,11.45514 -10.5437,12.35578 -7.9719,1.17501 -13.4276,-3.87826 -15.4411,-11.29744 -2.8548,-10.52486 -2.9765,-23.29392 -0.2672,-33.86667 1.5187,-5.92561 4.871,-11.76311 11.475,-12.62354 m 168.8041,22.94229 c 0.01,-6.67782 2.2278,-14.83228 7.1438,-19.56858 3.4845,-3.35466 9.6361,-4.90855 13.7583,-1.72271 4.789,3.70153 7.919,17.44742 0.7937,20.42637 -2.5214,1.05436 -5.5271,0.86492 -8.202,0.86492 h -13.4938 m -258.2333,-18.97063 c 3.6407,-0.5244 6.8501,0.48869 10.0542,2.10291 1.1218,0.56436 2.7834,1.22211 3.4316,2.36432 0.979,1.72138 0.2725,5.40729 0.2725,7.35965 v 18.78542 10.58333 c 0,1.16258 0.3678,3.10965 -0.2725,4.13306 -1.5346,2.45454 -7.0855,4.10236 -9.7816,4.51987 -7.1887,1.11258 -12.7582,-3.39989 -15.2321,-9.97585 -3.3523,-8.9064 -3.2596,-20.82059 0.3096,-29.63333 1.9817,-4.88818 5.707,-9.4451 11.2183,-10.23938 m -392.37704,22.6748 v 16.93333 c 0,1.78303 0.66145,5.2369 -0.27252,6.79291 -0.762,1.26894 -2.89455,2.20821 -4.2254,2.71463 -4.86833,1.85473 -11.22362,1.11548 -14.12081,-3.68671 -1.05834,-1.75339 -1.22502,-3.55679 -1.22502,-5.55625 0,-11.03101 10.59127,-15.07675 19.84375,-17.19791 m 82.02083,0 v 16.93333 c 0,1.83065 0.64822,5.21256 -0.27253,6.83048 -0.67733,1.19195 -2.50295,1.94019 -3.69622,2.48497 -4.85246,2.2143 -11.64167,1.38086 -14.57061,-3.49462 -1.02129,-1.69756 -1.30439,-3.60786 -1.30439,-5.55625 0,-11.27045 10.795,-14.63013 19.84375,-17.19791 m 791.36871,0 v 16.93333 c 0,1.83065 0.6482,5.21256 -0.2726,6.83048 -0.6773,1.19195 -2.5029,1.94019 -3.6962,2.48497 -4.8524,2.2143 -11.6417,1.38086 -14.5706,-3.49462 -1.0213,-1.69756 -1.3044,-3.60785 -1.3044,-5.55625 0,-11.27019 10.795,-14.6304 19.8438,-17.19791 z"
       id="path4479" /></g></svg>
